STARTFONT 2.1
FONT -FontForge-Untitled1-Regular-R-Normal--100-960-75-75-P-716-ISO8859-1
SIZE 96 75 75
FONTBOUNDINGBOX 141 111 -17 -27
COMMENT "Generated by fontforge, http://fontforge.sourceforge.net"
COMMENT "Copyright (c) 2020, Chris"
STARTPROPERTIES 31
FOUNDRY "FontForge"
FAMILY_NAME "Untitled1"
WEIGHT_NAME "Regular"
SLANT "R"
SETWIDTH_NAME "Normal"
ADD_STYLE_NAME ""
PIXEL_SIZE 100
POINT_SIZE 960
RESOLUTION_X 75
RESOLUTION_Y 75
SPACING "P"
AVERAGE_WIDTH 716
CHARSET_REGISTRY "ISO8859"
CHARSET_ENCODING "1"
FONTNAME_REGISTRY ""
CHARSET_COLLECTIONS "ISOLatin1Encoding"
FONT_NAME "Untitled1"
FACE_NAME "Untitled1"
COPYRIGHT "Copyright (c) 2020, Chris"
FONT_VERSION "001.000"
FONT_ASCENT 80
FONT_DESCENT 20
UNDERLINE_POSITION -10
UNDERLINE_THICKNESS 5
X_HEIGHT 53
CAP_HEIGHT 77
RAW_ASCENT 800
RAW_DESCENT 200
FIGURE_WIDTH -1
AVG_LOWERCASE_WIDTH 610
AVG_UPPERCASE_WIDTH 822
ENDPROPERTIES
CHARS 52
STARTCHAR A
ENCODING 65
SWIDTH 809 0
DWIDTH 81 0
BBX 85 79 -1 -1
BITMAP
0000000007F80000000000
0000000007FC0000000000
0000000007FC0000000000
000000000FFC0000000000
000000000FFE0000000000
000000001FFE0000000000
000000001FFF0000000000
000000001FFF0000000000
000000003FFF0000000000
000000003FFF8000000000
000000007FFF8000000000
000000007FFFC000000000
000000007FFFC000000000
00000000FFFFC000000000
00000000FFFFE000000000
00000001FFFFE000000000
00000001FFFFF000000000
00000001FFFFF000000000
00000003FFFFF000000000
00000003FBFFF800000000
00000007F3FFF800000000
00000007F1FFFC00000000
00000007E1FFFC00000000
0000000FE1FFFC00000000
0000000FE0FFFE00000000
0000001FC0FFFE00000000
0000001FC0FFFF00000000
0000001F807FFF00000000
0000003F807FFF00000000
0000003F803FFF80000000
0000007F003FFF80000000
0000007F003FFFC0000000
0000007F001FFFC0000000
000000FE001FFFE0000000
000000FE001FFFE0000000
000001FC000FFFE0000000
000001FC000FFFF0000000
000001FC0007FFF0000000
000003F80007FFF8000000
000003F80007FFF8000000
000007F00003FFF8000000
000007F00003FFFC000000
000007F00003FFFC000000
00000FE00001FFFE000000
00000FE00001FFFE000000
00000FC00000FFFE000000
00001FC00000FFFF000000
00001FC00000FFFF000000
00003F8000007FFF800000
00003FFFFFFFFFFF800000
00003FFFFFFFFFFF800000
00007FFFFFFFFFFFC00000
00007FFFFFFFFFFFC00000
0000FFFFFFFFFFFFE00000
0000FFFFFFFFFFFFE00000
0000FE0000001FFFE00000
0001FC0000000FFFF00000
0001FC0000000FFFF00000
0003F80000000FFFF80000
0003F800000007FFF80000
0003F800000007FFF80000
0007F000000007FFFC0000
0007F000000003FFFC0000
000FF000000003FFFE0000
000FE000000001FFFE0000
000FE000000001FFFF0000
001FE000000001FFFF0000
001FC000000001FFFF8000
003FC000000000FFFF8000
003FC000000000FFFFC000
007FC000000000FFFFC000
00FFC000000000FFFFE000
01FFE000000000FFFFF000
03FFE000000001FFFFFC00
1FFFF80000001FFFFFFFC0
FFFFFFE00001FFFFFFFFF8
FFFFFFE00001FFFFFFFFF8
FFFFFFE00001FFFFFFFFF8
FFFFFFE00001FFFFFFFFF8
ENDCHAR
STARTCHAR B
ENCODING 66
SWIDTH 797 0
DWIDTH 80 0
BBX 73 79 3 -1
BITMAP
3FFFFFFFFFE000000000
3FFFFFFFFFFF80000000
3FFFFFFFFFFFF0000000
3FFFFFFFFFFFFE000000
03FFFFFFFFFFFF800000
00FFFFFFFFFFFFE00000
007FFFC001FFFFF00000
003FFFC0001FFFF80000
003FFFC00007FFFC0000
001FFFC00003FFFE0000
001FFFC00001FFFF0000
001FFFC00000FFFF0000
001FFFC00000FFFF8000
001FFFC000007FFF8000
001FFFC000007FFF8000
001FFFC000007FFFC000
001FFFC000007FFFC000
001FFFC000003FFFC000
001FFFC000003FFFC000
001FFFC000003FFFC000
001FFFC000003FFFC000
001FFFC000003FFFC000
001FFFC000003FFF8000
001FFFC000007FFF8000
001FFFC000007FFF8000
001FFFC000007FFF0000
001FFFC00000FFFF0000
001FFFC00000FFFE0000
001FFFC00001FFFC0000
001FFFC00003FFF80000
001FFFC00007FFF00000
001FFFC0001FFFE00000
001FFFC0007FFF800000
001FFFC003FFFE000000
001FFFFFFFFFF8000000
001FFFFFFFFFE0000000
001FFFFFFFFFC0000000
001FFFFFFFFFFF800000
001FFFFFFFFFFFF00000
001FFFFFFFFFFFFC0000
001FFFC001FFFFFF0000
001FFFC0000FFFFF8000
001FFFC00001FFFFC000
001FFFC000007FFFE000
001FFFC000003FFFF000
001FFFC000001FFFF800
001FFFC000000FFFFC00
001FFFC0000007FFFC00
001FFFC0000003FFFE00
001FFFC0000003FFFE00
001FFFC0000003FFFF00
001FFFC0000001FFFF00
001FFFC0000001FFFF00
001FFFC0000001FFFF00
001FFFC0000001FFFF80
001FFFC0000001FFFF80
001FFFC0000000FFFF80
001FFFC0000000FFFF80
001FFFC0000000FFFF80
001FFFC0000000FFFF80
001FFFC0000001FFFF80
001FFFC0000001FFFF00
001FFFC0000001FFFF00
001FFFC0000001FFFF00
001FFFC0000001FFFF00
001FFFC0000003FFFE00
001FFFC0000003FFFE00
001FFFE0000007FFFC00
001FFFE000000FFFFC00
003FFFF000001FFFF800
003FFFF800003FFFF000
003FFFFE0000FFFFE000
007FFFFFC00FFFFFC000
00FFFFFFFFFFFFFF0000
07FFFFFFFFFFFFFC0000
FFFFFFFFFFFFFFF00000
FFFFFFFFFFFFFFC00000
FFFFFFFFFFFFFC000000
FFFFFFFFFFFF00000000
ENDCHAR
STARTCHAR C
ENCODING 67
SWIDTH 823 0
DWIDTH 82 0
BBX 73 79 5 -1
BITMAP
000000003FFF80003E00
00000007FFFFFC007C00
0000007FFFFFFF807C00
000001FFFFFFFFE07C00
000007FFFFFFFFF8FC00
00001FFFFFFFFFFEFC00
00007FFFFFFFFFFFFC00
0000FFFFE0007FFFFC00
0003FFFF00001FFFFC00
0007FFFC000007FFFC00
000FFFF8000001FFFC00
001FFFE0000000FFFC00
003FFFC00000007FFC00
007FFF800000003FFC00
00FFFF000000001FF800
01FFFF000000000FF800
01FFFE0000000007F800
03FFFC0000000007F800
07FFFC0000000003F800
07FFF80000000003F800
0FFFF80000000001F800
0FFFF00000000001F800
1FFFF00000000001F800
1FFFF00000000000F800
1FFFE00000000000F800
3FFFE00000000000F800
3FFFE000000000000000
3FFFC000000000000000
7FFFC000000000000000
7FFFC000000000000000
7FFFC000000000000000
7FFFC000000000000000
FFFFC000000000000000
FFFF8000000000000000
FFFF8000000000000000
FFFF8000000000000000
FFFF8000000000000000
FFFF8000000000000000
FFFF8000000000000000
FFFF8000000000000000
FFFF8000000000000000
FFFF8000000000000000
FFFF8000000000000000
FFFF8000000000000000
FFFF8000000000000000
FFFF8000000000000000
FFFF8000000000000000
FFFF8000000000000000
FFFFC000000000000000
FFFFC000000000000000
7FFFC000000000000000
7FFFC000000000000000
7FFFC000000000000F80
7FFFE000000000000F80
3FFFE000000000001F80
3FFFE000000000001F80
3FFFE000000000001F80
1FFFF000000000003F80
1FFFF000000000003F80
0FFFF800000000007F80
0FFFF800000000007F80
07FFFC0000000000FF80
03FFFC0000000000FF80
03FFFE0000000001FF80
01FFFF0000000003FF80
00FFFF8000000007FF80
007FFFC00000000FFF80
007FFFE00000001FFF80
003FFFF00000003FFF80
001FFFFC000000FFFF80
0007FFFF000007FFFF80
0003FFFFE0003FFF9F80
0001FFFFFFFFFFFE1F80
00007FFFFFFFFFFC1F80
00001FFFFFFFFFF01F80
000007FFFFFFFFC01F80
000000FFFFFFFE001F80
0000001FFFFFF0000F80
00000000FFFE00000F80
ENDCHAR
STARTCHAR D
ENCODING 68
SWIDTH 919 0
DWIDTH 92 0
BBX 84 79 3 -1
BITMAP
3FFFFFFFFFFF0000000000
3FFFFFFFFFFFF800000000
3FFFFFFFFFFFFF00000000
3FFFFFFFFFFFFFE0000000
03FFFFFFFFFFFFF8000000
00FFFFFFFFFFFFFE000000
007FFFC00007FFFF800000
003FFFC000007FFFE00000
003FFFC000001FFFF00000
001FFFC0000007FFF80000
001FFFC0000001FFFE0000
001FFFC0000000FFFF0000
001FFFC00000003FFF8000
001FFFC00000001FFFC000
001FFFC00000001FFFE000
001FFFC00000000FFFF000
001FFFC000000007FFF000
001FFFC000000003FFF800
001FFFC000000003FFFC00
001FFFC000000001FFFC00
001FFFC000000001FFFE00
001FFFC000000000FFFF00
001FFFC000000000FFFF00
001FFFC0000000007FFF80
001FFFC0000000007FFF80
001FFFC0000000007FFF80
001FFFC0000000003FFFC0
001FFFC0000000003FFFC0
001FFFC0000000003FFFC0
001FFFC0000000003FFFE0
001FFFC0000000001FFFE0
001FFFC0000000001FFFE0
001FFFC0000000001FFFF0
001FFFC0000000001FFFF0
001FFFC0000000001FFFF0
001FFFC0000000001FFFF0
001FFFC0000000001FFFF0
001FFFC0000000001FFFF0
001FFFC0000000000FFFF0
001FFFC0000000000FFFF0
001FFFC0000000000FFFF0
001FFFC0000000000FFFF0
001FFFC0000000000FFFF0
001FFFC0000000000FFFF0
001FFFC0000000001FFFF0
001FFFC0000000001FFFF0
001FFFC0000000001FFFF0
001FFFC0000000001FFFF0
001FFFC0000000001FFFF0
001FFFC0000000001FFFE0
001FFFC0000000001FFFE0
001FFFC0000000001FFFE0
001FFFC0000000003FFFE0
001FFFC0000000003FFFC0
001FFFC0000000003FFFC0
001FFFC0000000003FFFC0
001FFFC0000000007FFF80
001FFFC0000000007FFF80
001FFFC000000000FFFF00
001FFFC000000000FFFF00
001FFFC000000001FFFE00
001FFFC000000001FFFC00
001FFFC000000003FFFC00
001FFFC000000003FFF800
001FFFC000000007FFF000
001FFFC00000000FFFE000
001FFFE00000001FFFE000
001FFFE00000003FFFC000
001FFFF0000000FFFF8000
001FFFF8000001FFFE0000
003FFFFC000007FFFC0000
003FFFFF00003FFFF80000
007FFFFFE003FFFFE00000
00FFFFFFFFFFFFFF800000
07FFFFFFFFFFFFFF000000
FFFFFFFFFFFFFFF8000000
FFFFFFFFFFFFFFE0000000
FFFFFFFFFFFFFE00000000
FFFFFFFFFFFFC000000000
ENDCHAR
STARTCHAR E
ENCODING 69
SWIDTH 764 0
DWIDTH 76 0
BBX 70 79 3 -1
BITMAP
3FFFFFFFFFFFFFFF80
3FFFFFFFFFFFFFFF80
3FFFFFFFFFFFFFFF80
3FFFFFFFFFFFFFFF80
03FFFFFFFFFFFFFF80
00FFFFE00003FFFF80
007FFFC000000FFF80
003FFFC0000003FF80
003FFFC0000000FF80
001FFFC00000007F80
001FFFC00000003F80
001FFFC00000001F80
001FFFC00000001F80
001FFFC00000000F80
001FFFC00000000F80
001FFFC00000000F80
001FFFC00000000780
001FFFC00000000780
001FFFC00000000780
001FFFC00000000780
001FFFC00000000000
001FFFC00000000000
001FFFC00000000000
001FFFC00003C00000
001FFFC00003C00000
001FFFC00003C00000
001FFFC00003C00000
001FFFC00003C00000
001FFFC00007C00000
001FFFC00007C00000
001FFFC0000FC00000
001FFFC0000FC00000
001FFFC0001FC00000
001FFFC0007FC00000
001FFFC007FFC00000
001FFFFFFFFFC00000
001FFFFFFFFFC00000
001FFFFFFFFFC00000
001FFFFFFFFFC00000
001FFFFFFFFFC00000
001FFFC00FFFC00000
001FFFC000FFC00000
001FFFC0003FC00000
001FFFC0001FC00000
001FFFC0000FC00000
001FFFC00007C00000
001FFFC00007C00000
001FFFC00007C00000
001FFFC00003C00000
001FFFC00003C00000
001FFFC00003C00000
001FFFC00003C00000
001FFFC00003C00000
001FFFC00000000000
001FFFC00000000000
001FFFC0000000003C
001FFFC0000000003C
001FFFC0000000007C
001FFFC0000000007C
001FFFC0000000007C
001FFFC0000000007C
001FFFC000000000F8
001FFFC000000000F8
001FFFC000000001F8
001FFFC000000001F8
001FFFC000000003F8
001FFFC000000003F8
001FFFE000000007F8
001FFFE00000000FF8
003FFFF00000001FF8
003FFFF80000003FF8
003FFFFC000000FFF8
007FFFFF800007FFF8
00FFFFFFFFFFFFFFF8
07FFFFFFFFFFFFFFF8
FFFFFFFFFFFFFFFFF8
FFFFFFFFFFFFFFFFF0
FFFFFFFFFFFFFFFFF0
FFFFFFFFFFFFFFFFF0
ENDCHAR
STARTCHAR F
ENCODING 70
SWIDTH 689 0
DWIDTH 69 0
BBX 64 79 3 -1
BITMAP
3FFFFFFFFFFFFFFE
3FFFFFFFFFFFFFFE
3FFFFFFFFFFFFFFE
3FFFFFFFFFFFFFFE
07FFFFFFFFFFFFFE
00FFFFFFFFFFFFFE
007FFFC000003FFE
003FFFC000000FFE
003FFFC0000003FE
001FFFC0000001FE
001FFFC0000000FE
001FFFC00000007E
001FFFC00000007F
001FFFC00000003F
001FFFC00000003F
001FFFC00000003F
001FFFC00000001F
001FFFC00000001F
001FFFC00000001F
001FFFC00000001F
001FFFC00000000F
001FFFC00000000F
001FFFC000000000
001FFFC000000000
001FFFC00003C000
001FFFC00003C000
001FFFC00003C000
001FFFC00003C000
001FFFC00003C000
001FFFC00003C000
001FFFC00007C000
001FFFC00007C000
001FFFC0000FC000
001FFFC0000FC000
001FFFC0001FC000
001FFFC0007FC000
001FFFC001FFC000
001FFFC0FFFFC000
001FFFFFFFFFC000
001FFFFFFFFFC000
001FFFFFFFFFC000
001FFFFFFFFFC000
001FFFFFFFFFC000
001FFFC01FFFC000
001FFFC000FFC000
001FFFC0003FC000
001FFFC0001FC000
001FFFC0000FC000
001FFFC0000FC000
001FFFC00007C000
001FFFC00007C000
001FFFC00003C000
001FFFC00003C000
001FFFC00003C000
001FFFC00003C000
001FFFC00003C000
001FFFC000000000
001FFFC000000000
001FFFC000000000
001FFFC000000000
001FFFC000000000
001FFFC000000000
001FFFC000000000
001FFFC000000000
001FFFC000000000
001FFFC000000000
001FFFC000000000
001FFFC000000000
001FFFC000000000
001FFFC000000000
003FFFE000000000
003FFFE000000000
007FFFF000000000
00FFFFFC00000000
07FFFFFFC0000000
FFFFFFFFFF000000
FFFFFFFFFF000000
FFFFFFFFFF000000
FFFFFFFFFF000000
ENDCHAR
STARTCHAR G
ENCODING 71
SWIDTH 876 0
DWIDTH 88 0
BBX 81 79 5 -1
BITMAP
000000007FFF8000380000
0000000FFFFFFC00780000
0000007FFFFFFF80780000
000003FFFFFFFFE0780000
00000FFFFFFFFFF8F80000
00003FFFFFFFFFFEF80000
00007FFFFFFFFFFFF80000
0001FFFFC0007FFFF80000
0003FFFE00001FFFF80000
0007FFFC000007FFF80000
000FFFF0000001FFF80000
001FFFE0000000FFF80000
003FFFC00000007FF80000
007FFF800000001FF80000
00FFFF000000001FF80000
01FFFE000000000FF80000
01FFFC0000000007F80000
03FFFC0000000007F80000
07FFF80000000003F80000
07FFF80000000003F80000
0FFFF00000000001F80000
0FFFF00000000001F80000
1FFFF00000000000F80000
1FFFE00000000000F80000
3FFFE00000000000F80000
3FFFE00000000000F80000
3FFFC00000000000000000
7FFFC00000000000000000
7FFFC00000000000000000
7FFFC00000000000000000
7FFFC00000000000000000
FFFF800000000000000000
FFFF800000000000000000
FFFF800000000000000000
FFFF800000000000000000
FFFF800000000000000000
FFFF800000000000000000
FFFF800000000000000000
FFFF800000000000000000
FFFF800000000000000000
FFFF800000000000000000
FFFF800000000000000000
FFFF800000007FFFFFFF80
FFFF800000007FFFFFFF80
FFFF800000007FFFFFFF80
FFFF800000007FFFFFFF80
FFFF800000000FFFFFF800
FFFF8000000001FFFFE000
FFFFC0000000007FFFC000
FFFFC0000000007FFF8000
7FFFC0000000003FFF8000
7FFFC0000000001FFF8000
7FFFC0000000001FFF8000
7FFFE0000000001FFF0000
3FFFE0000000001FFF0000
3FFFE0000000001FFF0000
3FFFE0000000001FFF0000
1FFFF0000000001FFF0000
1FFFF0000000001FFF0000
0FFFF8000000001FFF0000
0FFFF8000000001FFF0000
07FFFC000000003FFF0000
07FFFC000000003FFF0000
03FFFE000000003FFF0000
01FFFF000000007FFF0000
01FFFF80000000FFFF0000
00FFFF80000000FFFF0000
007FFFE0000001FFFF0000
003FFFF0000003FFFF0000
001FFFF800000FFFFF0000
000FFFFE00003FFFC00000
0007FFFFC000FFFE000000
0001FFFFFFFFFFF8000000
0000FFFFFFFFFFF0000000
00003FFFFFFFFFC0000000
00000FFFFFFFFF00000000
000001FFFFFFFC00000000
0000003FFFFFE000000000
00000001FFFC0000000000
ENDCHAR
STARTCHAR H
ENCODING 72
SWIDTH 945 0
DWIDTH 95 0
BBX 88 79 3 -1
BITMAP
3FFFFFFFF0000FFFFFFFFE
3FFFFFFFF0000FFFFFFFFE
3FFFFFFFF0000FFFFFFFFE
3FFFFFFFF0000FFFFFFFFE
07FFFFFE0000007FFFFFE0
00FFFFF80000000FFFFF00
007FFFF000000007FFFE00
003FFFE000000003FFFE00
003FFFC000000003FFFC00
001FFFC000000003FFFC00
001FFFC000000003FFFC00
001FFFC000000001FFFC00
001FFFC000000001FFFC00
001FFFC000000001FFFC00
001FFFC000000001FFFC00
001FFFC000000001FFFC00
001FFFC000000001FFFC00
001FFFC000000001FFFC00
001FFFC000000001FFFC00
001FFFC000000001FFFC00
001FFFC000000001FFFC00
001FFFC000000001FFFC00
001FFFC000000001FFFC00
001FFFC000000001FFFC00
001FFFC000000001FFFC00
001FFFC000000001FFFC00
001FFFC000000001FFFC00
001FFFC000000001FFFC00
001FFFC000000001FFFC00
001FFFC000000001FFFC00
001FFFC000000001FFFC00
001FFFC000000001FFFC00
001FFFC000000001FFFC00
001FFFC000000001FFFC00
001FFFC000000001FFFC00
001FFFC000000001FFFC00
001FFFFFFFFFFFFFFFFC00
001FFFFFFFFFFFFFFFFC00
001FFFFFFFFFFFFFFFFC00
001FFFFFFFFFFFFFFFFC00
001FFFFFFFFFFFFFFFFC00
001FFFFFFFFFFFFFFFFC00
001FFFC000000001FFFC00
001FFFC000000001FFFC00
001FFFC000000001FFFC00
001FFFC000000001FFFC00
001FFFC000000001FFFC00
001FFFC000000001FFFC00
001FFFC000000001FFFC00
001FFFC000000001FFFC00
001FFFC000000001FFFC00
001FFFC000000001FFFC00
001FFFC000000001FFFC00
001FFFC000000001FFFC00
001FFFC000000001FFFC00
001FFFC000000001FFFC00
001FFFC000000001FFFC00
001FFFC000000001FFFC00
001FFFC000000001FFFC00
001FFFC000000001FFFC00
001FFFC000000001FFFC00
001FFFC000000001FFFC00
001FFFC000000001FFFC00
001FFFC000000001FFFC00
001FFFC000000001FFFC00
001FFFC000000001FFFC00
001FFFC000000001FFFC00
001FFFC000000001FFFC00
001FFFC000000003FFFC00
001FFFC000000003FFFC00
003FFFC000000003FFFC00
003FFFE000000003FFFE00
007FFFF000000007FFFE00
00FFFFF80000000FFFFF00
07FFFFFF0000007FFFFFE0
FFFFFFFFF8001FFFFFFFFF
FFFFFFFFF8001FFFFFFFFF
FFFFFFFFF8001FFFFFFFFF
FFFFFFFFF8001FFFFFFFFF
ENDCHAR
STARTCHAR I
ENCODING 73
SWIDTH 429 0
DWIDTH 43 0
BBX 35 79 4 -1
BITMAP
7FFFFFFFC0
7FFFFFFFC0
7FFFFFFFC0
7FFFFFFFC0
0FFFFFFE00
01FFFFF000
00FFFFE000
007FFFC000
007FFFC000
007FFFC000
003FFF8000
003FFF8000
003FFF8000
003FFF8000
003FFF8000
003FFF8000
003FFF8000
003FFF8000
003FFF8000
003FFF8000
003FFF8000
003FFF8000
003FFF8000
003FFF8000
003FFF8000
003FFF8000
003FFF8000
003FFF8000
003FFF8000
003FFF8000
003FFF8000
003FFF8000
003FFF8000
003FFF8000
003FFF8000
003FFF8000
003FFF8000
003FFF8000
003FFF8000
003FFF8000
003FFF8000
003FFF8000
003FFF8000
003FFF8000
003FFF8000
003FFF8000
003FFF8000
003FFF8000
003FFF8000
003FFF8000
003FFF8000
003FFF8000
003FFF8000
003FFF8000
003FFF8000
003FFF8000
003FFF8000
003FFF8000
003FFF8000
003FFF8000
003FFF8000
003FFF8000
003FFF8000
003FFF8000
003FFF8000
003FFF8000
003FFF8000
003FFF8000
003FFF8000
007FFF8000
007FFFC000
007FFFC000
00FFFFE000
01FFFFF000
0FFFFFFE00
FFFFFFFFE0
FFFFFFFFE0
FFFFFFFFE0
FFFFFFFFE0
ENDCHAR
STARTCHAR J
ENCODING 74
SWIDTH 407 0
DWIDTH 41 0
BBX 54 105 -17 -27
BITMAP
00000FFFFFFFFC
00000FFFFFFFFC
00000FFFFFFFFC
00000FFFFFFFFC
0000007FFFFFC0
0000001FFFFE00
0000000FFFFC00
00000007FFFC00
00000007FFF800
00000003FFF800
00000003FFF800
00000003FFF800
00000003FFF800
00000003FFF800
00000003FFF800
00000003FFF800
00000003FFF800
00000003FFF800
00000003FFF800
00000003FFF800
00000003FFF800
00000003FFF800
00000003FFF800
00000003FFF800
00000003FFF800
00000003FFF800
00000003FFF800
00000003FFF800
00000003FFF800
00000003FFF800
00000003FFF800
00000003FFF800
00000003FFF800
00000003FFF800
00000003FFF800
00000003FFF800
00000003FFF800
00000003FFF800
00000003FFF800
00000003FFF800
00000003FFF800
00000003FFF800
00000003FFF800
00000003FFF800
00000003FFF800
00000003FFF800
00000003FFF800
00000003FFF800
00000003FFF800
00000003FFF800
00000003FFF800
00000003FFF800
00000003FFF800
00000003FFF800
00000003FFF800
00000003FFF800
00000003FFF800
00000003FFF800
00000003FFF800
00000003FFF800
00000003FFF800
00000003FFF800
00000003FFF800
00000003FFF800
00000003FFF800
00000003FFF800
00000003FFF800
00000003FFF800
00000003FFF800
00000003FFF800
00000003FFF800
00000003FFF800
00000003FFF800
00000003FFF800
00000003FFF800
00000003FFF800
00000003FFF800
00000003FFF800
00000003FFF800
00000003FFF800
00000003FFF800
00000003FFF800
00000003FFF800
00000003FFF000
00000003FFF000
00000003FFF000
00000003FFF000
00000003FFF000
1FC00007FFF000
3FE00007FFE000
7FF00007FFE000
7FF00007FFE000
FFF8000FFFC000
FFFC000FFFC000
FFFC000FFF8000
FFFE001FFF8000
7FFF003FFF0000
7FFF007FFE0000
3FFFC0FFFC0000
3FFFFFFFF80000
1FFFFFFFF00000
07FFFFFFC00000
03FFFFFF000000
007FFFFC000000
0007FFC0000000
ENDCHAR
STARTCHAR K
ENCODING 75
SWIDTH 822 0
DWIDTH 82 0
BBX 81 79 3 -1
BITMAP
3FFFFFFFF001FFFFFFC000
3FFFFFFFF001FFFFFFC000
3FFFFFFFF001FFFFFFC000
3FFFFFFFF001FFFFFFC000
07FFFFFE00000FFFFC0000
00FFFFF8000003FFF00000
007FFFE0000003FFC00000
003FFFE0000003FF800000
003FFFC0000007FF000000
001FFFC0000007FE000000
001FFFC000000FFC000000
001FFFC000001FF8000000
001FFFC000003FF0000000
001FFFC000007FE0000000
001FFFC00000FFC0000000
001FFFC00001FF80000000
001FFFC00003FF00000000
001FFFC00007FE00000000
001FFFC00007FC00000000
001FFFC0000FF800000000
001FFFC0001FF000000000
001FFFC0003FE000000000
001FFFC0007FC000000000
001FFFC000FF8000000000
001FFFC001FF0000000000
001FFFC003FE0000000000
001FFFC007FE0000000000
001FFFC00FFC0000000000
001FFFC01FF80000000000
001FFFC01FF00000000000
001FFFC03FE00000000000
001FFFC07FC00000000000
001FFFC0FF800000000000
001FFFC1FF800000000000
001FFFC3FFC00000000000
001FFFC7FFE00000000000
001FFFCFFFF00000000000
001FFFDFFFF00000000000
001FFFFFFFF80000000000
001FFFFFFFFC0000000000
001FFFFFFFFE0000000000
001FFFFFFFFF0000000000
001FFFFFFFFF0000000000
001FFFFFFFFF8000000000
001FFFFDFFFFC000000000
001FFFF8FFFFE000000000
001FFFF07FFFF000000000
001FFFE03FFFF000000000
001FFFC01FFFF800000000
001FFFC01FFFFC00000000
001FFFC00FFFFE00000000
001FFFC007FFFF00000000
001FFFC003FFFF00000000
001FFFC003FFFF80000000
001FFFC001FFFFC0000000
001FFFC000FFFFE0000000
001FFFC0007FFFF0000000
001FFFC0003FFFF0000000
001FFFC0003FFFF8000000
001FFFC0001FFFFC000000
001FFFC0000FFFFE000000
001FFFC00007FFFF000000
001FFFC00003FFFF000000
001FFFC00003FFFF800000
001FFFC00001FFFFC00000
001FFFC00000FFFFE00000
001FFFC000007FFFF00000
001FFFC000003FFFF00000
001FFFC000003FFFF80000
001FFFC000001FFFFC0000
003FFFC000000FFFFE0000
003FFFE000000FFFFF0000
007FFFE000000FFFFF8000
00FFFFF000001FFFFFE000
07FFFFFE00007FFFFFF800
FFFFFFFFE00FFFFFFFFF80
FFFFFFFFE00FFFFFFFFF80
FFFFFFFFE00FFFFFFFFF80
FFFFFFFFE00FFFFFFFFF80
ENDCHAR
STARTCHAR L
ENCODING 76
SWIDTH 755 0
DWIDTH 76 0
BBX 71 79 3 -1
BITMAP
3FFFFFFFF000000000
3FFFFFFFF000000000
3FFFFFFFF000000000
3FFFFFFFF000000000
03FFFFFE0000000000
00FFFFF80000000000
007FFFE00000000000
003FFFE00000000000
003FFFC00000000000
001FFFC00000000000
001FFFC00000000000
001FFFC00000000000
001FFFC00000000000
001FFFC00000000000
001FFFC00000000000
001FFFC00000000000
001FFFC00000000000
001FFFC00000000000
001FFFC00000000000
001FFFC00000000000
001FFFC00000000000
001FFFC00000000000
001FFFC00000000000
001FFFC00000000000
001FFFC00000000000
001FFFC00000000000
001FFFC00000000000
001FFFC00000000000
001FFFC00000000000
001FFFC00000000000
001FFFC00000000000
001FFFC00000000000
001FFFC00000000000
001FFFC00000000000
001FFFC00000000000
001FFFC00000000000
001FFFC00000000000
001FFFC00000000000
001FFFC00000000000
001FFFC00000000000
001FFFC00000000000
001FFFC00000000000
001FFFC00000000000
001FFFC00000000000
001FFFC00000000000
001FFFC00000000000
001FFFC00000000000
001FFFC00000000000
001FFFC00000000000
001FFFC00000000000
001FFFC00000000000
001FFFC00000000000
001FFFC00000000000
001FFFC00000000000
001FFFC00000000000
001FFFC00000000000
001FFFC0000000001E
001FFFC0000000001E
001FFFC0000000003E
001FFFC0000000003E
001FFFC0000000003E
001FFFC0000000007E
001FFFC0000000007E
001FFFC0000000007C
001FFFC000000000FC
001FFFC000000000FC
001FFFE000000001FC
001FFFE000000001FC
001FFFE000000003FC
001FFFF000000007FC
003FFFF80000001FFC
003FFFFC0000003FFC
007FFFFF800001FFFC
00FFFFFFFFFFFFFFFC
07FFFFFFFFFFFFFFFC
FFFFFFFFFFFFFFFFFC
FFFFFFFFFFFFFFFFFC
FFFFFFFFFFFFFFFFF8
FFFFFFFFFFFFFFFFF8
ENDCHAR
STARTCHAR M
ENCODING 77
SWIDTH 1145 0
DWIDTH 115 0
BBX 109 80 3 -2
BITMAP
7FFFFFFF000000000003FFFFFFE0
7FFFFFFF000000000003FFFFFFE0
7FFFFFFF000000000007FFFFFFE0
7FFFFFFF800000000007FFFFFFE0
03FFFFFF80000000000FFFFFFE00
00FFFFFFC0000000000FFFFFF000
007FFFFFC0000000000FFFFFE000
003FFFFFC0000000001FFFFFE000
003FFFFFE0000000001FFFFFC000
001FFFFFE0000000001FFFFFC000
001FFFFFE0000000003FFFFFC000
001FFFFFF0000000003FFFFF8000
001FEFFFF0000000007FFFFF8000
001FEFFFF8000000007FBFFF8000
001FE7FFF8000000007FBFFF8000
001FE7FFF800000000FFBFFF8000
000FE3FFFC00000000FF3FFF8000
000FE3FFFC00000001FF3FFF8000
000FE3FFFE00000001FE3FFF8000
000FE1FFFE00000001FE3FFF8000
000FE1FFFE00000003FE3FFF8000
000FE0FFFF00000003FC3FFF8000
000FE0FFFF00000003FC3FFF8000
000FE0FFFF80000007F83FFF8000
000FE07FFF80000007F83FFF8000
000FE07FFF8000000FF83FFF8000
000FE03FFFC000000FF03FFF8000
000FE03FFFC000000FF03FFF8000
000FE01FFFE000001FE03FFF8000
000FE01FFFE000001FE03FFF8000
000FE01FFFE000003FE03FFF8000
000FE00FFFF000003FC03FFF8000
000FE00FFFF000003FC03FFF8000
000FE007FFF000007F803FFF8000
000FE007FFF800007F803FFF8000
000FE007FFF800007F803FFF8000
000FE003FFFC0000FF003FFF8000
000FE003FFFC0000FF003FFF8000
000FE001FFFC0001FE003FFF8000
000FE001FFFE0001FE003FFF8000
000FE001FFFE0001FE003FFF8000
000FE000FFFF0003FC003FFF8000
000FE000FFFF0003FC003FFF8000
000FE0007FFF0007F8003FFF8000
000FE0007FFF8007F8003FFF8000
000FE0007FFF8007F8003FFF8000
000FE0003FFFC00FF0003FFF8000
000FE0003FFFC00FF0003FFF8000
000FE0001FFFC01FE0003FFF8000
000FE0001FFFE01FE0003FFF8000
000FE0000FFFE01FE0003FFF8000
000FE0000FFFE03FC0003FFF8000
000FE0000FFFF03FC0003FFF8000
000FE00007FFF03F80003FFF8000
000FE00007FFF87F80003FFF8000
000FE00003FFF87F80003FFF8000
000FE00003FFF8FF00003FFF8000
000FE00003FFFCFF00003FFF8000
000FE00001FFFCFF00003FFF8000
000FE00001FFFFFE00003FFF8000
000FE00000FFFFFE00003FFF8000
000FE00000FFFFFC00003FFF8000
000FE00000FFFFFC00003FFF8000
000FE000007FFFFC00003FFF8000
001FF000007FFFF800003FFF8000
001FF000003FFFF800003FFF8000
001FF000003FFFF000003FFF8000
001FF000003FFFF000003FFF8000
001FF000001FFFF000003FFFC000
001FF000001FFFE000003FFFC000
001FF000000FFFE000007FFFC000
003FF800000FFFC000007FFFE000
007FFC000007FFC00000FFFFE000
00FFFE000007FFC00001FFFFF000
07FFFFC00007FF80000FFFFFFE00
FFFFFFFE0003FF8001FFFFFFFFF8
FFFFFFFE0003FF0001FFFFFFFFF8
FFFFFFFE0001FF0001FFFFFFFFF8
FFFFFFFE0001FF0001FFFFFFFFF8
000000000001FE00000000000000
ENDCHAR
STARTCHAR N
ENCODING 78
SWIDTH 940 0
DWIDTH 94 0
BBX 89 80 3 -2
BITMAP
7FFFFFF80000001FFFFFFF80
7FFFFFFC0000001FFFFFFF80
7FFFFFFE0000001FFFFFFF80
7FFFFFFE0000001FFFFFFF80
07FFFFFF00000000FFFFF000
00FFFFFF800000003FFF8000
007FFFFF800000000FFF0000
003FFFFFC00000000FFE0000
003FFFFFE000000007FC0000
001FFFFFE000000007FC0000
001FFFFFF000000007FC0000
001FFFFFF800000007FC0000
001FFFFFF800000007FC0000
001FFFFFFC00000007FC0000
001FFFFFFE00000007F80000
001FEFFFFE00000003F80000
001FE7FFFF00000003F80000
001FE7FFFF80000003F80000
001FE3FFFF80000003F80000
001FE1FFFFC0000003F80000
001FE1FFFFE0000003F80000
001FE0FFFFF0000003F80000
001FE07FFFF0000003F80000
001FE07FFFF8000003F80000
001FE03FFFFC000003F80000
001FE01FFFFC000003F80000
001FE01FFFFE000003F80000
001FE00FFFFF000003F80000
001FE007FFFF000003F80000
001FE007FFFF800003F80000
001FE003FFFFC00003F80000
001FE001FFFFC00003F80000
001FE001FFFFE00003F80000
001FE000FFFFF00003F80000
001FE0007FFFF00003F80000
001FE0003FFFF80003F80000
001FE0003FFFFC0003F80000
001FE0001FFFFC0003F80000
001FE0000FFFFE0003F80000
001FE0000FFFFF0003F80000
001FE00007FFFF0003F80000
001FE00003FFFF8003F80000
001FE00003FFFFC003F80000
001FE00001FFFFC003F80000
001FE00000FFFFE003F80000
001FE00000FFFFF003F80000
001FE000007FFFF003F80000
001FE000003FFFF803F80000
001FE000003FFFFC03F80000
001FE000001FFFFE03F80000
001FE000000FFFFE03F80000
001FE000000FFFFF03F80000
001FE0000007FFFF83F80000
001FE0000003FFFF83F80000
001FE0000001FFFFC3F80000
001FE0000001FFFFE3F80000
001FE0000000FFFFE3F80000
001FE00000007FFFF3F80000
001FE00000007FFFFBF80000
001FE00000003FFFFFF80000
001FE00000001FFFFFF80000
001FE00000001FFFFFF80000
001FE00000000FFFFFF80000
001FE000000007FFFFF80000
001FE000000007FFFFF80000
001FE000000003FFFFF80000
001FF000000001FFFFF80000
001FF000000001FFFFF80000
001FF000000000FFFFF80000
001FF0000000007FFFF80000
003FF0000000007FFFF80000
003FF8000000003FFFF80000
007FF8000000001FFFF80000
00FFFC000000000FFFF80000
07FFFF800000000FFFF80000
FFFFFFFC00000007FFF80000
FFFFFFFC00000003FFF80000
FFFFFFFC00000003FFF80000
FFFFFFFC00000001FFF80000
0000000000000000FFF80000
ENDCHAR
STARTCHAR O
ENCODING 79
SWIDTH 943 0
DWIDTH 94 0
BBX 86 79 4 -1
BITMAP
000000000FFFC000000000
00000001FFFFFE00000000
0000000FFFFFFFC0000000
0000007FFFFFFFF8000000
000001FFFFFFFFFE000000
000007FFFFFFFFFF800000
00001FFFFFFFFFFFE00000
00003FFFF0003FFFF00000
00007FFF800007FFFC0000
0001FFFE000001FFFE0000
0003FFFC000000FFFF0000
0007FFF80000003FFF8000
000FFFE00000001FFFC000
001FFFC00000000FFFE000
003FFFC000000007FFF000
007FFF8000000003FFF800
00FFFF0000000003FFFC00
00FFFE0000000001FFFE00
01FFFE0000000000FFFE00
03FFFC0000000000FFFF00
03FFFC00000000007FFF80
07FFF800000000007FFF80
07FFF800000000007FFFC0
0FFFF800000000003FFFC0
0FFFF000000000003FFFE0
1FFFF000000000003FFFE0
1FFFF000000000001FFFE0
3FFFE000000000001FFFF0
3FFFE000000000001FFFF0
3FFFE000000000001FFFF0
3FFFE000000000000FFFF8
7FFFE000000000000FFFF8
7FFFC000000000000FFFF8
7FFFC000000000000FFFF8
7FFFC000000000000FFFF8
7FFFC000000000000FFFFC
7FFFC000000000000FFFFC
7FFFC000000000000FFFFC
7FFFC000000000000FFFFC
FFFFC000000000000FFFFC
FFFFC000000000000FFFFC
FFFFC000000000000FFFFC
7FFFC000000000000FFFFC
7FFFC000000000000FFFFC
7FFFC000000000000FFFFC
7FFFC000000000000FFFF8
7FFFC000000000000FFFF8
7FFFC000000000000FFFF8
7FFFC000000000000FFFF8
3FFFE000000000000FFFF8
3FFFE000000000000FFFF0
3FFFE000000000001FFFF0
1FFFE000000000001FFFF0
1FFFF000000000001FFFE0
1FFFF000000000001FFFE0
0FFFF000000000003FFFC0
0FFFF800000000003FFFC0
07FFF800000000007FFF80
07FFF800000000007FFF80
03FFFC0000000000FFFF00
01FFFC0000000000FFFF00
01FFFE0000000001FFFE00
00FFFF0000000001FFFC00
007FFF0000000003FFF800
003FFF8000000007FFF800
001FFFC00000000FFFF000
000FFFE00000001FFFE000
0007FFF00000003FFFC000
0003FFFC0000007FFF0000
0001FFFE000001FFFE0000
0000FFFF800007FFFC0000
00003FFFF0003FFFF80000
00001FFFFFFFFFFFE00000
000007FFFFFFFFFF800000
000001FFFFFFFFFE000000
0000007FFFFFFFF8000000
0000000FFFFFFFC0000000
00000001FFFFFE00000000
000000000FFFC000000000
ENDCHAR
STARTCHAR P
ENCODING 80
SWIDTH 717 0
DWIDTH 72 0
BBX 67 79 3 -1
BITMAP
3FFFFFFFFFF0000000
3FFFFFFFFFFFC00000
3FFFFFFFFFFFF80000
3FFFFFFFFFFFFF0000
07FFFFFFFFFFFFC000
00FFFFFFFFFFFFE000
007FFFC0003FFFF800
003FFFC0000FFFFC00
003FFFC00003FFFE00
001FFFC00001FFFE00
001FFFC00000FFFF00
001FFFC00000FFFF80
001FFFC000007FFF80
001FFFC000007FFF80
001FFFC000003FFFC0
001FFFC000003FFFC0
001FFFC000003FFFC0
001FFFC000003FFFE0
001FFFC000001FFFE0
001FFFC000001FFFE0
001FFFC000001FFFE0
001FFFC000001FFFE0
001FFFC000001FFFE0
001FFFC000001FFFE0
001FFFC000001FFFE0
001FFFC000001FFFE0
001FFFC000001FFFE0
001FFFC000003FFFC0
001FFFC000003FFFC0
001FFFC000003FFFC0
001FFFC000007FFFC0
001FFFC000007FFF80
001FFFC00000FFFF80
001FFFC00000FFFF00
001FFFC00001FFFE00
001FFFC00003FFFE00
001FFFC0000FFFFC00
001FFFC0003FFFF800
001FFFC003FFFFF000
001FFFFFFFFFFFC000
001FFFFFFFFFFF8000
001FFFFFFFFFFE0000
001FFFFFFFFFF00000
001FFFFFFFFF800000
001FFFFFFFE0000000
001FFFC00000000000
001FFFC00000000000
001FFFC00000000000
001FFFC00000000000
001FFFC00000000000
001FFFC00000000000
001FFFC00000000000
001FFFC00000000000
001FFFC00000000000
001FFFC00000000000
001FFFC00000000000
001FFFC00000000000
001FFFC00000000000
001FFFC00000000000
001FFFC00000000000
001FFFC00000000000
001FFFC00000000000
001FFFC00000000000
001FFFC00000000000
001FFFC00000000000
001FFFC00000000000
001FFFC00000000000
001FFFC00000000000
001FFFC00000000000
001FFFC00000000000
003FFFE00000000000
003FFFE00000000000
007FFFF00000000000
00FFFFF80000000000
07FFFFFF0000000000
FFFFFFFFFF00000000
FFFFFFFFFF00000000
FFFFFFFFFF00000000
FFFFFFFFFF00000000
ENDCHAR
STARTCHAR Q
ENCODING 81
SWIDTH 949 0
DWIDTH 95 0
BBX 89 105 5 -27
BITMAP
000000001FFF800000000000
00000003FFFFFC0000000000
0000001FFFFFFF8000000000
000000FFFFFFFFF000000000
000003FFFFFFFFFC00000000
00000FFFFFFFFFFF00000000
00003FFFFFFFFFFFC0000000
00007FFFE0007FFFF0000000
0000FFFF00000FFFF8000000
0003FFFC000003FFFC000000
0007FFF8000001FFFE000000
000FFFF00000007FFF800000
001FFFC00000003FFFC00000
003FFFC00000001FFFE00000
007FFF800000000FFFF00000
00FFFF0000000007FFF00000
00FFFE0000000007FFF80000
01FFFE0000000003FFFC0000
03FFFC0000000001FFFE0000
07FFF80000000001FFFE0000
07FFF80000000000FFFF0000
0FFFF00000000000FFFF0000
0FFFF000000000007FFF8000
1FFFF000000000007FFF8000
1FFFE000000000007FFFC000
3FFFE000000000003FFFC000
3FFFE000000000003FFFE000
3FFFC000000000003FFFE000
7FFFC000000000001FFFF000
7FFFC000000000001FFFF000
7FFFC000000000001FFFF000
7FFFC000000000001FFFF000
FFFFC000000000001FFFF800
FFFF8000000000000FFFF800
FFFF8000000000000FFFF800
FFFF8000000000000FFFF800
FFFF8000000000000FFFF800
FFFF8000000000000FFFF800
FFFF8000000000000FFFF800
FFFF8000000000000FFFF800
FFFF8000000000000FFFF800
FFFF8000000000000FFFF800
FFFF8000000000000FFFF800
FFFF8000000000000FFFF800
FFFF8000000000000FFFF800
FFFF8000000000000FFFF800
FFFF8000000000000FFFF800
FFFF8000000000000FFFF800
FFFF8000000000000FFFF800
FFFFC000000000001FFFF000
7FFFC000000000001FFFF000
7FFFC000000000001FFFF000
7FFFC000000000001FFFF000
3FFFC000000000001FFFE000
3FFFC000000000003FFFE000
3FFFE000000000003FFFE000
1FFFE000000000003FFFC000
1FFFE000000000007FFFC000
0FFFF000000000007FFF8000
0FFFF000000000007FFF8000
07FFF00000000000FFFF0000
07FFF80000000000FFFE0000
03FFF80000000001FFFE0000
03FFFC0000000001FFFC0000
01FFFC0000000003FFF80000
00FFFE0000000003FFF80000
007FFF0000000007FFF00000
007FFF000000000FFFE00000
003FFF800000001FFFC00000
001FFFC00000003FFF800000
000FFFE00000007FFF000000
0007FFF0000000FFFE000000
0003FFFC000001FFF8000000
0000FFFE000007FFF0000000
00007FFFC0001FFFE0000000
00001FFFF801FFFF80000000
00000FFFFFFFFFFE00000000
000003FFFFFFFFF800000000
000000FFFFFFFFE000000000
0000001FFFFFFF8000000000
00000003FFFFFC0000000000
000000001FFFF00000000000
000000000FFF800000000000
000000003FFC000000000000
000000007FF0000000000000
00000001FFC0000000000000
00000007FF00000000000780
0000001FFC00000000000F80
0000003FFFFF800000000F80
000000FFFFFFF80000001F80
000003FFFFFFFF0000003F80
000007FFFFFFFFF000007F80
00001FFFFFFFFFFF0000FF80
00003FFE01FFFFFFFC3FFF80
00003FF8003FFFFFFFFFFF00
00007FE0000FFFFFFFFFFF00
00007FC00003FFFFFFFFFE00
00003F800000FFFFFFFFFE00
0000000000003FFFFFFFFC00
0000000000000FFFFFFFF800
00000000000003FFFFFFF000
00000000000000FFFFFFE000
000000000000001FFFFF8000
0000000000000007FFFE0000
00000000000000007FE00000
ENDCHAR
STARTCHAR R
ENCODING 82
SWIDTH 815 0
DWIDTH 82 0
BBX 82 79 3 -1
BITMAP
3FFFFFFFFFF00000000000
3FFFFFFFFFFFC000000000
3FFFFFFFFFFFF800000000
3FFFFFFFFFFFFF00000000
03FFFFFFFFFFFFC0000000
00FFFFFFFFFFFFE0000000
007FFFC0003FFFF0000000
003FFFC0000FFFFC000000
003FFFC00003FFFE000000
001FFFC00001FFFE000000
001FFFC00000FFFF000000
001FFFC000007FFF800000
001FFFC000007FFF800000
001FFFC000003FFF800000
001FFFC000003FFFC00000
001FFFC000003FFFC00000
001FFFC000001FFFC00000
001FFFC000001FFFC00000
001FFFC000001FFFC00000
001FFFC000001FFFE00000
001FFFC000001FFFC00000
001FFFC000001FFFC00000
001FFFC000001FFFC00000
001FFFC000001FFFC00000
001FFFC000003FFFC00000
001FFFC000003FFFC00000
001FFFC000003FFFC00000
001FFFC000003FFF800000
001FFFC000007FFF800000
001FFFC000007FFF000000
001FFFC00000FFFF000000
001FFFC00001FFFE000000
001FFFC00003FFFE000000
001FFFC0000FFFFC000000
001FFFC0003FFFF8000000
001FFFC003FFFFF0000000
001FFFFFFFFFFFE0000000
001FFFFFFFFFFF80000000
001FFFFFFFFFFE00000000
001FFFFFFFFFF800000000
001FFFFFFFFFC000000000
001FFFFFFFFE0000000000
001FFFCFFFFE0000000000
001FFFC3FFFF0000000000
001FFFC1FFFF8000000000
001FFFC0FFFFC000000000
001FFFC07FFFE000000000
001FFFC03FFFF000000000
001FFFC03FFFF000000000
001FFFC01FFFF800000000
001FFFC00FFFFC00000000
001FFFC007FFFE00000000
001FFFC003FFFF00000000
001FFFC003FFFF80000000
001FFFC001FFFF80000000
001FFFC000FFFFC0000000
001FFFC0007FFFE0000000
001FFFC0007FFFF0000000
001FFFC0003FFFF8000000
001FFFC0001FFFFC000000
001FFFC0000FFFFE000000
001FFFC00007FFFE000000
001FFFC00007FFFF000000
001FFFC00003FFFF800000
001FFFC00001FFFFC00000
001FFFC00000FFFFE00000
001FFFC00000FFFFF00000
001FFFC000007FFFF00000
001FFFC000003FFFF80000
001FFFC000001FFFFC0000
003FFFE000000FFFFE0000
003FFFE000000FFFFF0000
007FFFF0000007FFFF8000
00FFFFF8000003FFFFE000
03FFFFFF000001FFFFFC00
FFFFFFFFFF0000FFFFFFC0
FFFFFFFFFF0000FFFFFFC0
FFFFFFFFFF00007FFFFFC0
FFFFFFFFFF00003FFFFFC0
ENDCHAR
STARTCHAR S
ENCODING 83
SWIDTH 663 0
DWIDTH 66 0
BBX 57 79 5 -1
BITMAP
000007FF00000000
00007FFFF001C000
0003FFFFFE01C000
000FFFFFFF83C000
001FFFFFFFC3C000
007FFFFFFFF3C000
00FFFE01FFFFC000
01FFF0001FFFC000
03FFC00007FFC000
03FF800003FFC000
07FF000001FFC000
07FE000000FFC000
0FFE0000007FC000
0FFC0000003FC000
1FFC0000001FC000
1FFC0000000FC000
1FFC0000000FC000
3FFC00000007C000
3FFC00000007C000
3FFC00000003E000
3FFC00000003E000
3FFE00000003E000
3FFE00000001E000
3FFF000000000000
3FFFC00000000000
1FFFE00000000000
1FFFF80000000000
1FFFFE0000000000
1FFFFFC000000000
0FFFFFF000000000
0FFFFFFE00000000
07FFFFFF80000000
03FFFFFFF0000000
03FFFFFFFC000000
01FFFFFFFF000000
00FFFFFFFFC00000
007FFFFFFFF00000
003FFFFFFFF80000
001FFFFFFFFE0000
0007FFFFFFFF0000
0003FFFFFFFF8000
0000FFFFFFFFC000
00003FFFFFFFE000
00000FFFFFFFF000
000003FFFFFFF800
0000007FFFFFFC00
0000001FFFFFFC00
00000003FFFFFE00
00000000FFFFFE00
000000003FFFFF00
000000000FFFFF00
0000000003FFFF00
0000000000FFFF00
F0000000007FFF80
F8000000003FFF80
78000000001FFF80
78000000001FFF80
78000000000FFF80
7C000000000FFF80
7C000000000FFF80
7E000000000FFF00
7E000000000FFF00
7F000000000FFF00
7F000000001FFE00
7F800000001FFE00
7FC00000001FFE00
7FE00000003FFC00
7FF00000007FF800
7FF8000000FFF800
7FFE000001FFF000
7FFF000003FFE000
7FFFE0001FFFC000
7FFFFC00FFFF8000
3DFFFFFFFFFE0000
3C7FFFFFFFFC0000
383FFFFFFFF00000
380FFFFFFF800000
3803FFFFFC000000
30003FFFC0000000
ENDCHAR
STARTCHAR T
ENCODING 84
SWIDTH 827 0
DWIDTH 83 0
BBX 81 79 1 -1
BITMAP
7FFFFFFFFFFFFFFFFFFF00
7FFFFFFFFFFFFFFFFFFF00
7FFFFFFFFFFFFFFFFFFF00
7FFFFFFFFFFFFFFFFFFF00
7FFFFFFFFFFFFFFFFFFF00
7FFF8007FFFFF000FFFF00
7FF00000FFFF00000FFF00
7FC000007FFF000003FF00
7F8000007FFF000001FF00
7F0000007FFF000000FF00
7E0000007FFF0000007F00
7C0000007FFF0000003F00
7C0000007FFF0000003F00
780000007FFF0000003F00
780000007FFF0000001F00
780000007FFF0000001F00
F80000007FFF0000001F00
F00000007FFF0000000F00
F00000007FFF0000000F00
F00000007FFF0000000F00
F00000007FFF0000000F00
F00000007FFF0000000F00
F00000007FFF0000000F80
000000007FFF0000000000
000000007FFF0000000000
000000007FFF0000000000
000000007FFF0000000000
000000007FFF0000000000
000000007FFF0000000000
000000007FFF0000000000
000000007FFF0000000000
000000007FFF0000000000
000000007FFF0000000000
000000007FFF0000000000
000000007FFF0000000000
000000007FFF0000000000
000000007FFF0000000000
000000007FFF0000000000
000000007FFF0000000000
000000007FFF0000000000
000000007FFF0000000000
000000007FFF0000000000
000000007FFF0000000000
000000007FFF0000000000
000000007FFF0000000000
000000007FFF0000000000
000000007FFF0000000000
000000007FFF0000000000
000000007FFF0000000000
000000007FFF0000000000
000000007FFF0000000000
000000007FFF0000000000
000000007FFF0000000000
000000007FFF0000000000
000000007FFF0000000000
000000007FFF0000000000
000000007FFF0000000000
000000007FFF0000000000
000000007FFF0000000000
000000007FFF0000000000
000000007FFF0000000000
000000007FFF0000000000
000000007FFF0000000000
000000007FFF0000000000
000000007FFF0000000000
000000007FFF0000000000
000000007FFF0000000000
00000000FFFF0000000000
00000000FFFF0000000000
00000000FFFF0000000000
00000001FFFF8000000000
00000001FFFF8000000000
00000003FFFFC000000000
0000000FFFFFF000000000
0000007FFFFFFE00000000
00001FFFFFFFFFF8000000
00001FFFFFFFFFF8000000
00001FFFFFFFFFF8000000
00001FFFFFFFFFF8000000
ENDCHAR
STARTCHAR U
ENCODING 85
SWIDTH 880 0
DWIDTH 88 0
BBX 84 79 3 -1
BITMAP
FFFFFFFFF0000FFFFFFFF0
FFFFFFFFF0000FFFFFFFF0
FFFFFFFFF0000FFFFFFFF0
FFFFFFFFF0000FFFFFFFF0
07FFFFF80000007FFFFE00
01FFFFE00000000FFFF000
00FFFFC000000007FFE000
00FFFF8000000003FFE000
00FFFF8000000001FFC000
007FFF8000000001FFC000
007FFF8000000001FFC000
007FFF0000000000FF8000
007FFF0000000000FF8000
007FFF0000000000FF8000
007FFF0000000000FF8000
007FFF0000000000FF8000
007FFF0000000000FF8000
007FFF0000000000FF8000
007FFF0000000000FF8000
007FFF0000000000FF8000
007FFF0000000000FF8000
007FFF0000000000FF8000
007FFF0000000000FF8000
007FFF0000000000FF8000
007FFF0000000000FF8000
007FFF0000000000FF8000
007FFF0000000000FF8000
007FFF0000000000FF8000
007FFF0000000000FF8000
007FFF0000000000FF8000
007FFF0000000000FF8000
007FFF0000000000FF8000
007FFF0000000000FF8000
007FFF0000000000FF8000
007FFF0000000000FF8000
007FFF0000000000FF8000
007FFF0000000000FF8000
007FFF0000000000FF8000
007FFF0000000000FF8000
007FFF0000000000FF8000
007FFF0000000000FF8000
007FFF0000000000FF8000
007FFF0000000000FF8000
007FFF0000000000FF8000
007FFF0000000000FF8000
007FFF0000000000FF8000
007FFF0000000000FF8000
007FFF0000000000FF8000
007FFF0000000000FF8000
007FFF0000000000FF8000
007FFF0000000000FF8000
007FFF0000000000FF8000
007FFF0000000000FF0000
007FFF0000000000FF0000
007FFF0000000000FF0000
007FFF0000000000FF0000
003FFF8000000000FF0000
003FFF8000000001FF0000
003FFF8000000001FF0000
003FFF8000000001FE0000
003FFFC000000003FE0000
001FFFC000000003FE0000
001FFFC000000003FC0000
001FFFE000000007FC0000
000FFFE00000000FFC0000
000FFFF00000000FF80000
000FFFF80000001FF80000
0007FFFC0000003FF00000
0003FFFE000000FFF00000
0003FFFF800001FFE00000
0001FFFFE0000FFFC00000
0000FFFFFE00FFFF800000
00007FFFFFFFFFFF000000
00003FFFFFFFFFFE000000
00000FFFFFFFFFF8000000
000003FFFFFFFFE0000000
000000FFFFFFFF80000000
0000001FFFFFFC00000000
00000000FFFF8000000000
ENDCHAR
STARTCHAR V
ENCODING 86
SWIDTH 805 0
DWIDTH 81 0
BBX 85 78 -3 0
BITMAP
FFFFFFFFFC00007FFFFFF8
FFFFFFFFFC00007FFFFFF8
FFFFFFFFFC00007FFFFFF8
FFFFFFFFFC00007FFFFFF8
0FFFFFFF80000001FFFF80
01FFFFFC000000007FFE00
00FFFFF8000000007FF800
007FFFF8000000003FF000
003FFFF8000000003FE000
001FFFF8000000007FE000
001FFFF8000000007FC000
000FFFF8000000007FC000
0007FFFC000000007F8000
0007FFFC000000007F8000
0003FFFC00000000FF8000
0003FFFE00000000FF0000
0001FFFE00000000FF0000
0001FFFE00000001FE0000
0001FFFF00000001FE0000
0000FFFF00000003FE0000
0000FFFF00000003FC0000
00007FFF80000003FC0000
00007FFF80000007F80000
00007FFFC0000007F80000
00003FFFC0000007F80000
00003FFFC000000FF00000
00001FFFE000000FF00000
00001FFFE000001FE00000
00000FFFE000001FE00000
00000FFFF000001FE00000
00000FFFF000003FC00000
000007FFF000003FC00000
000007FFF800007F800000
000003FFF800007F800000
000003FFFC00007F800000
000003FFFC0000FF000000
000001FFFC0000FF000000
000001FFFE0000FE000000
000000FFFE0001FE000000
000000FFFE0001FE000000
000000FFFF0003FC000000
0000007FFF0003FC000000
0000007FFF0003F8000000
0000003FFF8007F8000000
0000003FFF8007F8000000
0000003FFFC00FF0000000
0000001FFFC00FF0000000
0000001FFFC00FE0000000
0000000FFFE01FE0000000
0000000FFFE01FE0000000
00000007FFE03FC0000000
00000007FFF03FC0000000
00000007FFF03F80000000
00000003FFF87F80000000
00000003FFF87F80000000
00000001FFF8FF00000000
00000001FFFCFF00000000
00000001FFFCFE00000000
00000000FFFDFE00000000
00000000FFFFFE00000000
000000007FFFFC00000000
000000007FFFFC00000000
000000007FFFF800000000
000000003FFFF800000000
000000003FFFF800000000
000000001FFFF000000000
000000001FFFF000000000
000000001FFFE000000000
000000000FFFE000000000
000000000FFFE000000000
0000000007FFC000000000
0000000007FFC000000000
0000000003FF8000000000
0000000003FF8000000000
0000000003FF8000000000
0000000001FF0000000000
0000000001FF0000000000
0000000000FE0000000000
ENDCHAR
STARTCHAR W
ENCODING 87
SWIDTH 1227 0
DWIDTH 123 0
BBX 127 78 -3 0
BITMAP
FFFFFFFFFC003FFFFFFFFC001FFFFFFE
FFFFFFFFFC003FFFFFFFFC001FFFFFFE
FFFFFFFFFC003FFFFFFFFC001FFFFFFE
FFFFFFFFFC003FFFFFFFFC001FFFFFFE
07FFFFFF800007FFFFFF800000FFFFF0
01FFFFFC000000FFFFFE0000003FFF80
007FFFF80000003FFFFC0000001FFE00
003FFFF80000001FFFFC0000001FFC00
001FFFF80000001FFFF80000000FFC00
001FFFF80000000FFFF80000000FF800
000FFFF800000007FFF80000001FF000
0007FFFC00000007FFFC0000001FF000
0007FFFC00000007FFFC0000001FF000
0007FFFC00000003FFFC0000001FE000
0003FFFE00000007FFFC0000001FE000
0003FFFE00000007FFFE0000003FC000
0001FFFE00000007FFFE0000003FC000
0001FFFF0000000FFFFE0000003FC000
0000FFFF0000000FFFFE0000007F8000
0000FFFF0000000FFFFF0000007F8000
0000FFFF8000001FFFFF0000007F8000
00007FFF8000001FFFFF000000FF0000
00007FFF8000003FFFFF800000FF0000
00007FFFC000003FFFFF800000FF0000
00003FFFC000003FFFFF800001FE0000
00003FFFC000007FFFFFC00001FE0000
00003FFFE000007FBFFFC00001FC0000
00001FFFE000007F3FFFC00003FC0000
00001FFFF00000FF3FFFE00003FC0000
00000FFFF00000FF1FFFE00003F80000
00000FFFF00000FE1FFFE00007F80000
00000FFFF80001FE1FFFF00007F80000
000007FFF80001FE0FFFF0000FF00000
000007FFF80003FC0FFFF0000FF00000
000007FFFC0003FC0FFFF0000FF00000
000003FFFC0003F807FFF8001FE00000
000003FFFC0007F807FFF8001FE00000
000003FFFE0007F807FFF8001FC00000
000001FFFE0007F003FFFC003FC00000
000001FFFE000FF003FFFC003FC00000
000000FFFF000FF003FFFC003F800000
000000FFFF000FE001FFFE007F800000
000000FFFF001FE001FFFE007F800000
0000007FFF801FC001FFFE007F000000
0000007FFF803FC000FFFF00FF000000
0000007FFF803FC000FFFF00FE000000
0000003FFFC03F8000FFFF00FE000000
0000003FFFC07F80007FFF81FE000000
0000003FFFC07F80007FFF81FC000000
0000001FFFE07F00007FFF81FC000000
0000001FFFE0FF00003FFF83FC000000
0000000FFFE0FE00003FFFC3F8000000
0000000FFFF1FE00003FFFC7F8000000
0000000FFFF1FE00001FFFC7F8000000
00000007FFF9FC00001FFFE7F0000000
00000007FFFBFC00001FFFEFF0000000
00000007FFFBFC00000FFFEFE0000000
00000003FFFFF800000FFFFFE0000000
00000003FFFFF800000FFFFFE0000000
00000003FFFFF0000007FFFFC0000000
00000001FFFFF0000007FFFFC0000000
00000001FFFFF0000007FFFFC0000000
00000000FFFFE0000003FFFF80000000
00000000FFFFE0000003FFFF80000000
00000000FFFFE0000003FFFF80000000
000000007FFFC0000001FFFF00000000
000000007FFFC0000001FFFF00000000
000000007FFF80000001FFFE00000000
000000003FFF80000000FFFE00000000
000000003FFF80000000FFFE00000000
000000003FFF00000000FFFC00000000
000000001FFF000000007FFC00000000
000000001FFF000000007FFC00000000
000000000FFE000000007FF800000000
000000000FFE000000003FF800000000
000000000FFC000000003FF800000000
0000000007FC000000003FF000000000
0000000007FC000000001FF000000000
ENDCHAR
STARTCHAR X
ENCODING 88
SWIDTH 848 0
DWIDTH 85 0
BBX 86 79 0 -1
BITMAP
7FFFFFFFFE0007FFFFFFE0
7FFFFFFFFE0007FFFFFFE0
7FFFFFFFFE0007FFFFFFE0
7FFFFFFFFE0007FFFFFFE0
07FFFFFFC000003FFFF800
00FFFFFF8000000FFFC000
007FFFFF00000007FF8000
003FFFFF00000007FF0000
001FFFFF00000007FE0000
000FFFFF0000000FFC0000
0007FFFF0000000FFC0000
0003FFFF8000001FF80000
0003FFFF8000001FF00000
0001FFFFC000003FE00000
0000FFFFE000007FC00000
00007FFFE00000FFC00000
00007FFFF00001FF800000
00003FFFF80001FF000000
00001FFFFC0003FE000000
00000FFFFC0007FC000000
00000FFFFE000FFC000000
000007FFFF001FF8000000
000003FFFF001FF0000000
000001FFFF803FE0000000
000001FFFFC07FE0000000
000000FFFFC0FFC0000000
0000007FFFE1FF80000000
0000003FFFF3FF00000000
0000003FFFFBFE00000000
0000001FFFFFFE00000000
0000000FFFFFFC00000000
00000007FFFFF800000000
00000007FFFFF000000000
00000003FFFFE000000000
00000001FFFFE000000000
00000000FFFFC000000000
00000000FFFFE000000000
000000007FFFE000000000
000000003FFFF000000000
000000001FFFF800000000
000000001FFFF800000000
000000001FFFFC00000000
000000001FFFFE00000000
000000003FFFFF00000000
000000007FFFFF00000000
00000000FFFFFF80000000
00000001FFFFFFC0000000
00000001FF7FFFC0000000
00000003FE7FFFE0000000
00000007FE3FFFF0000000
0000000FFC1FFFF0000000
0000001FF81FFFF8000000
0000001FF00FFFFC000000
0000003FF007FFFE000000
0000007FE007FFFE000000
000000FFC003FFFF000000
000001FF8001FFFF800000
000001FF0001FFFF800000
000003FF0000FFFFC00000
000007FE00007FFFE00000
00000FFC00007FFFF00000
00001FF800003FFFF00000
00001FF000001FFFF80000
00003FE000001FFFFC0000
00007FC000000FFFFC0000
0000FFC0000007FFFE0000
0001FF80000007FFFF0000
0001FF00000003FFFF0000
0003FE00000001FFFF8000
0007FE00000001FFFFC000
000FFC00000000FFFFE000
001FFC00000000FFFFF000
003FFC00000000FFFFF800
00FFFC00000000FFFFFE00
03FFFF80000003FFFFFFC0
FFFFFFFE00007FFFFFFFFC
FFFFFFFE00007FFFFFFFFC
FFFFFFFE00007FFFFFFFFC
FFFFFFFE00007FFFFFFFFC
ENDCHAR
STARTCHAR Y
ENCODING 89
SWIDTH 760 0
DWIDTH 76 0
BBX 79 79 -1 -1
BITMAP
FFFFFFFF800003FFFFFE
FFFFFFFF800003FFFFFE
FFFFFFFF800003FFFFFE
FFFFFFFF800003FFFFFE
1FFFFFF00000001FFFF0
07FFFFC000000007FFC0
01FFFFC000000007FF00
00FFFFC000000007FE00
00FFFFC000000007FE00
007FFFC000000007FC00
003FFFE00000000FF800
003FFFE00000000FF000
001FFFE00000000FF000
001FFFF00000001FE000
000FFFF80000003FC000
0007FFF80000003FC000
0007FFFC0000007F8000
0003FFFC0000007F0000
0003FFFE000000FF0000
0001FFFE000000FE0000
0001FFFF000001FE0000
0000FFFF000001FC0000
0000FFFF800003FC0000
00007FFF800007F80000
00007FFFC00007F00000
00003FFFC0000FF00000
00001FFFE0000FE00000
00001FFFE0001FE00000
00000FFFF0001FC00000
00000FFFF0003FC00000
000007FFF8007F800000
000007FFF8007F000000
000003FFFC00FF000000
000003FFFC00FE000000
000001FFFE01FE000000
000001FFFE03FC000000
000000FFFF03FC000000
0000007FFF07F8000000
0000007FFF87F0000000
0000003FFF8FF0000000
0000003FFFCFE0000000
0000001FFFDFE0000000
0000001FFFFFC0000000
0000000FFFFFC0000000
0000000FFFFF80000000
00000007FFFF00000000
00000007FFFF00000000
00000003FFFE00000000
00000001FFFE00000000
00000001FFFE00000000
00000000FFFE00000000
00000000FFFE00000000
00000000FFFE00000000
00000000FFFE00000000
00000000FFFE00000000
00000000FFFE00000000
00000000FFFE00000000
00000000FFFE00000000
00000000FFFE00000000
00000000FFFE00000000
00000000FFFE00000000
00000000FFFE00000000
00000000FFFE00000000
00000000FFFE00000000
00000000FFFE00000000
00000000FFFE00000000
00000000FFFE00000000
00000001FFFE00000000
00000001FFFE00000000
00000001FFFE00000000
00000001FFFF00000000
00000003FFFF00000000
00000003FFFF80000000
00000007FFFFC0000000
0000003FFFFFF0000000
000007FFFFFFFF800000
000007FFFFFFFF800000
000007FFFFFFFF800000
000007FFFFFFFF800000
ENDCHAR
STARTCHAR Z
ENCODING 90
SWIDTH 797 0
DWIDTH 80 0
BBX 75 79 1 -1
BITMAP
01FFFFFFFFFFFFFFFF00
01FFFFFFFFFFFFFFFF00
01FFFFFFFFFFFFFFFF00
01FFFFFFFFFFFFFFFE00
01FFFFFFFFFFFFFFFC00
03FFFC0000001FFFF800
03FFC00000003FFFF800
03FF000000007FFFF000
03FE00000000FFFFE000
03FC00000000FFFFE000
03F800000001FFFFC000
03F000000003FFFF8000
03F000000003FFFF8000
03E000000007FFFF0000
03E00000000FFFFE0000
03E00000000FFFFC0000
03C00000001FFFFC0000
03C00000003FFFF80000
07C00000007FFFF00000
07800000007FFFF00000
0780000000FFFFE00000
0000000001FFFFC00000
0000000001FFFFC00000
0000000003FFFF800000
0000000007FFFF000000
0000000007FFFE000000
000000000FFFFE000000
000000001FFFFC000000
000000003FFFF8000000
000000003FFFF8000000
000000007FFFF0000000
00000000FFFFE0000000
00000000FFFFE0000000
00000001FFFFC0000000
00000003FFFF80000000
00000007FFFF00000000
00000007FFFF00000000
0000000FFFFE00000000
0000001FFFFC00000000
0000001FFFFC00000000
0000003FFFF800000000
0000007FFFF000000000
0000007FFFF000000000
000000FFFFE000000000
000001FFFFC000000000
000003FFFF8000000000
000003FFFF8000000000
000007FFFF0000000000
00000FFFFE0000000000
00000FFFFE0000000000
00001FFFFC0000000000
00003FFFF80000000000
00003FFFF80000000000
00007FFFF000000003E0
0000FFFFE000000003E0
0001FFFFC000000003E0
0001FFFFC000000003E0
0003FFFF8000000003E0
0007FFFF0000000007E0
0007FFFF0000000007E0
000FFFFE0000000007E0
001FFFFC0000000007E0
003FFFFC000000000FE0
003FFFF8000000000FC0
007FFFF0000000000FC0
00FFFFE0000000001FC0
00FFFFE0000000001FC0
01FFFFC0000000003FC0
03FFFF80000000007FC0
03FFFF80000000007FC0
07FFFF0000000001FFC0
0FFFFE0000000003FFC0
1FFFFE000000001FFFC0
1FFFFFFFFFFFFFFFFFC0
3FFFFFFFFFFFFFFFFFC0
7FFFFFFFFFFFFFFFFFC0
7FFFFFFFFFFFFFFFFFC0
FFFFFFFFFFFFFFFFFFC0
FFFFFFFFFFFFFFFFFFC0
ENDCHAR
STARTCHAR a
ENCODING 97
SWIDTH 574 0
DWIDTH 57 0
BBX 53 55 3 -1
BITMAP
0000FFFE000000
001FFFFFE00000
007FFFFFFC0000
01FFFFFFFE0000
03FFFFFFFF0000
07FFF01FFF8000
0FFFE00FFFC000
1FFFC007FFE000
1FFF8003FFE000
1FFF8003FFF000
1FFF0001FFF000
1FFF0001FFF000
1FFE0001FFF000
1FFE0001FFF800
0FFC0001FFF800
07F80001FFF800
03E00001FFF800
00000001FFF800
00000001FFF800
00000001FFF800
00000001FFF800
00000007FFF800
0000003FFFF800
000000FFFFF800
000003FFFFF800
00001FFFFFF800
00007FF9FFF800
0001FFE1FFF800
000FFF81FFF800
001FFF01FFF800
007FFC01FFF800
01FFF001FFF800
03FFE001FFF800
07FFC001FFF800
0FFF8001FFF800
1FFF0001FFF800
3FFE0001FFF800
3FFE0001FFF800
7FFE0001FFF800
7FFE0003FFF800
7FFE0003FFF800
FFFE0007FFF800
FFFE000FFFF800
FFFF001FFFF800
7FFF807F7FF800
7FFFE3FF7FFC00
7FFFFFFE7FFC00
7FFFFFFC7FFE30
3FFFFFF87FFFF8
3FFFFFF03FFFF8
1FFFFFE03FFFF8
0FFFFFC01FFFF0
07FFFF001FFFE0
01FFFC0007FF80
003FE00001FC00
ENDCHAR
STARTCHAR b
ENCODING 98
SWIDTH 674 0
DWIDTH 67 0
BBX 64 85 0 -1
BITMAP
00001C0000000000
0003FC0000000000
00FFFC0000000000
1FFFFC0000000000
FFFFFC0000000000
FFFFFC0000000000
FFFFFC0000000000
FFFFFC0000000000
07FFFC0000000000
03FFFC0000000000
01FFFC0000000000
01FFFC0000000000
00FFFC0000000000
00FFFC0000000000
00FFFC0000000000
00FFFC0000000000
00FFFC0000000000
00FFFC0000000000
00FFFC0000000000
00FFFC0000000000
00FFFC0000000000
00FFFC0000000000
00FFFC0000000000
00FFFC0000000000
00FFFC0000000000
00FFFC0000000000
00FFFC0000000000
00FFFC0000000000
00FFFC0000000000
00FFFC0000000000
00FFFC003FF00000
00FFFC01FFFE0000
00FFFC07FFFF8000
00FFFC1FFFFFE000
00FFFC3FFFFFF800
00FFFC7FFFFFFC00
00FFFCFFE3FFFE00
00FFFDFE007FFF00
00FFFFF8001FFF80
00FFFFF0000FFFC0
00FFFFE00007FFC0
00FFFFC00007FFE0
00FFFF800003FFF0
00FFFF800003FFF0
00FFFF000001FFF8
00FFFF000001FFF8
00FFFF000001FFFC
00FFFE000001FFFC
00FFFE000000FFFC
00FFFE000000FFFE
00FFFE000000FFFE
00FFFE000000FFFE
00FFFE000000FFFE
00FFFE000000FFFE
00FFFE000000FFFE
00FFFE000000FFFF
00FFFE000000FFFF
00FFFE000000FFFF
00FFFE000000FFFF
00FFFE000000FFFF
00FFFE000000FFFE
00FFFE000000FFFE
00FFFE000000FFFE
00FFFE000000FFFE
00FFFE000000FFFE
00FFFE000000FFFE
00FFFE000000FFFC
00FFFE000001FFFC
00FFFE000001FFFC
00FFFF000001FFF8
00FFFF000001FFF8
00FFFF800003FFF0
00FFFF800003FFE0
00FFFFC00007FFE0
00FFFFE00007FFC0
00FFFFE0000FFF80
00FFFFF8001FFF80
00FFFFFC003FFF00
00FFEFFF00FFFE00
00FFC7FFFFFFF800
00FF83FFFFFFF000
00FF01FFFFFFC000
00FE007FFFFF8000
00FC003FFFFC0000
00F00000FFE00000
ENDCHAR
STARTCHAR c
ENCODING 99
SWIDTH 564 0
DWIDTH 56 0
BBX 50 55 4 -1
BITMAP
000001FFE00000
00003FFFFE0000
0000FFFFFFC000
0003FFFFFFF000
000FFFFFFFF800
003FFFFFFFFE00
007FFF01FFFF00
00FFFC00FFFF00
01FFF8007FFF80
03FFF0003FFF80
07FFE0003FFFC0
07FFC0001FFFC0
0FFFC0000FFFC0
1FFF80000FFF80
1FFF800007FF80
3FFF800003FF80
3FFF000001FF00
3FFF0000007C00
7FFF0000000000
7FFF0000000000
7FFF0000000000
FFFF0000000000
FFFE0000000000
FFFE0000000000
FFFE0000000000
FFFE0000000000
FFFE0000000000
FFFE0000000000
FFFE0000000000
FFFE0000000000
FFFE0000000000
FFFF0000000000
FFFF0000000000
FFFF0000000000
FFFF0000000000
7FFF0000000000
7FFF0000000000
7FFF8000000000
3FFF8000000000
3FFF8000000000
3FFFC000000000
1FFFC000000000
1FFFE000000000
0FFFF000000600
07FFF800001F00
07FFFC00007F00
03FFFE0001FF80
01FFFF800FFF00
00FFFFFFFFFC00
003FFFFFFFF800
001FFFFFFFF000
0007FFFFFFC000
0001FFFFFF0000
00007FFFF80000
000007FF800000
ENDCHAR
STARTCHAR d
ENCODING 100
SWIDTH 694 0
DWIDTH 69 0
BBX 63 85 4 -1
BITMAP
0000000000000E00
000000000007FE00
0000000001FFFE00
000000007FFFFE00
00000003FFFFFE00
00000003FFFFFE00
00000003FFFFFE00
00000000FFFFFE00
0000000003FFFE00
0000000001FFFE00
0000000000FFFE00
00000000007FFE00
00000000007FFE00
00000000007FFE00
00000000007FFE00
00000000007FFE00
00000000007FFE00
00000000007FFE00
00000000007FFE00
00000000007FFE00
00000000007FFE00
00000000007FFE00
00000000007FFE00
00000000007FFE00
00000000007FFE00
00000000007FFE00
00000000007FFE00
00000000007FFE00
00000000007FFE00
00000000007FFE00
00000FFC007FFE00
00007FFFC07FFE00
0003FFFFF07FFE00
000FFFFFFC7FFE00
001FFFFFFE7FFE00
003FFFFFFF7FFE00
007FFFFFFFFFFE00
00FFFE00FFFFFE00
01FFF8003FFFFE00
03FFF0001FFFFE00
07FFE0000FFFFE00
0FFFC00007FFFE00
0FFFC00003FFFE00
1FFF800003FFFE00
1FFF800001FFFE00
3FFF800001FFFE00
3FFF000000FFFE00
3FFF000000FFFE00
7FFF000000FFFE00
7FFF000000FFFE00
7FFF0000007FFE00
FFFE0000007FFE00
FFFE0000007FFE00
FFFE0000007FFE00
FFFE0000007FFE00
FFFE0000007FFE00
FFFE0000007FFE00
FFFE0000007FFE00
FFFE0000007FFE00
FFFE0000007FFE00
FFFE0000007FFE00
FFFE0000007FFE00
FFFE0000007FFE00
FFFE0000007FFE00
FFFE0000007FFE00
7FFF0000007FFE00
7FFF0000007FFE00
7FFF000000FFFE00
3FFF000000FFFE00
3FFF000000FFFE00
3FFF800000FFFE00
1FFF800001FFFE00
1FFFC00001FFFE00
0FFFC00003FFFE00
07FFE00007FFFE00
07FFE0000FFFFF00
03FFF0001FFFFF00
01FFF8003FFFFF00
00FFFE01FFEFFF80
007FFFFFFFCFFFC0
001FFFFFFF0FFFFE
000FFFFFFE0FFFFE
0003FFFFF80FFFFE
0000FFFFE00FFFFE
00000FFE000FFC00
ENDCHAR
STARTCHAR e
ENCODING 101
SWIDTH 585 0
DWIDTH 59 0
BBX 51 55 4 -1
BITMAP
000001FFC00000
00001FFFFC0000
0000FFFFFF0000
0003FFFFFFC000
000FFFFFFFF000
001FFFFFFFF800
007FFF80FFFC00
00FFFE007FFE00
01FFF8003FFE00
03FFF0001FFF00
03FFE0000FFF00
07FFE0000FFF80
0FFFC0000FFF80
1FFFC00007FFC0
1FFF800007FFC0
3FFF800007FFC0
3FFF800007FFC0
3FFF00000FFFE0
7FFFFFFFFFFFE0
7FFFFFFFFFFFE0
7FFFFFFFFFFFE0
FFFFFFFFFFFFE0
FFFFFFFFFFFFE0
FFFFFFFFFFFFE0
FFFE0000000000
FFFE0000000000
FFFE0000000000
FFFE0000000000
FFFE0000000000
FFFE0000000000
FFFE0000000000
FFFE0000000000
FFFE0000000000
FFFE0000000000
FFFF0000000000
7FFF0000000000
7FFF0000000000
7FFF0000000000
3FFF8000000000
3FFF8000000000
3FFFC000000000
1FFFC000000000
1FFFE000000300
0FFFF000000F80
07FFF800001FC0
03FFFC00007F80
03FFFE0001FF00
01FFFF8007FE00
00FFFFFFFFFC00
003FFFFFFFF800
001FFFFFFFE000
0007FFFFFFC000
0001FFFFFF0000
00007FFFF80000
000007FF800000
ENDCHAR
STARTCHAR f
ENCODING 102
SWIDTH 443 0
DWIDTH 44 0
BBX 51 85 2 -1
BITMAP
00000003FF8000
0000003FFFF800
000000FFFFFE00
000003FFFFFF80
00000FFFFFFFC0
00001FFFFFFFC0
00003FFC0FFFE0
00007FF807FFE0
0000FFF003FFE0
0001FFE001FFE0
0003FFE000FFE0
0003FFC0007FC0
0007FFC0003F80
0007FFC0000E00
000FFF80000000
000FFF80000000
000FFF80000000
001FFF80000000
001FFF80000000
001FFF80000000
001FFF00000000
001FFF00000000
001FFF00000000
003FFF00000000
003FFF00000000
003FFF00000000
003FFF00000000
003FFF00000000
003FFF00000000
003FFF00000000
FFFFFFFFFF8000
FFFFFFFFFF8000
FFFFFFFFFF8000
FFFFFFFFFF8000
FFFFFFFFFF8000
FFFFFFFFFF8000
003FFF00000000
003FFF00000000
003FFF00000000
003FFF00000000
003FFF00000000
003FFF00000000
003FFF00000000
003FFF00000000
003FFF00000000
003FFF00000000
003FFF00000000
003FFF00000000
003FFF00000000
003FFF00000000
003FFF00000000
003FFF00000000
003FFF00000000
003FFF00000000
003FFF00000000
003FFF00000000
003FFF00000000
003FFF00000000
003FFF00000000
003FFF00000000
003FFF00000000
003FFF00000000
003FFF00000000
003FFF00000000
003FFF00000000
003FFF00000000
003FFF00000000
003FFF00000000
003FFF00000000
003FFF00000000
003FFF00000000
003FFF80000000
003FFF80000000
003FFF80000000
003FFF80000000
003FFF80000000
003FFF80000000
003FFFC0000000
007FFFE0000000
00FFFFF0000000
03FFFFFE000000
7FFFFFFFE00000
7FFFFFFFE00000
7FFFFFFFE00000
7FFFFFFFE00000
ENDCHAR
STARTCHAR g
ENCODING 103
SWIDTH 610 0
DWIDTH 61 0
BBX 61 81 2 -27
BITMAP
00000FFC00007F00
00007FFFC001FFE0
0003FFFFF807FFF0
000FFFFFFC1FFFF8
001FFFFFFF7FFFF8
003FFF1FFFFFFFF8
007FFC07FFFFFFF8
00FFF803FFFC1FF8
01FFF001FFF80FF8
01FFF001FFF007F0
03FFE001FFF803E0
03FFE000FFF80000
07FFE000FFF80000
07FFC000FFFC0000
07FFC000FFFC0000
07FFC000FFFC0000
07FFC000FFFC0000
07FFC000FFFC0000
07FFC000FFFC0000
07FFC000FFFC0000
07FFC000FFFC0000
07FFC000FFFC0000
07FFC000FFF80000
03FFE000FFF80000
03FFE000FFF80000
03FFE000FFF80000
01FFF001FFF00000
00FFF001FFF00000
00FFF803FFE00000
007FF803FFC00000
003FFE0FFF800000
001FFFFFFF000000
000FFFFFFE000000
0003FFFFF8000000
0007FFFFE0000000
001FFFFF80000000
007FFFF800000000
00FFFC0000000000
01FFC00000000000
03FF800000000000
07FF000000000000
07FF000000000000
07FF800000000000
07FFE00000000000
07FFFFF800000000
07FFFFFFF0000000
07FFFFFFFF800000
07FFFFFFFFF00000
07FFFFFFFFF80000
03FFFFFFFFFE0000
01FFFFFFFFFF0000
00FFFFFFFFFF8000
007FFFFFFFFFC000
001FFFFFFFFFE000
0001FFFFFFFFE000
000003FFFFFFF000
01F00007FFFFF000
07FE00000FFFF800
1FFF800003FFF800
3FFFC00001FFF800
3FFFC00000FFFC00
7FFF0000007FFC00
7FFE0000007FFC00
FFFC0000003FFC00
FFFC0000003FFC00
FFF80000003FFC00
FFF80000003FFC00
FFF80000003FF800
FFF80000003FF800
FFF80000007FF800
7FFC0000007FF000
7FFC000000FFF000
3FFE000001FFE000
3FFF800003FFC000
1FFFE0001FFF8000
0FFFFF07FFFF0000
03FFFFFFFFFE0000
01FFFFFFFFF80000
007FFFFFFFE00000
0007FFFFFF000000
00003FFFE0000000
ENDCHAR
STARTCHAR h
ENCODING 104
SWIDTH 714 0
DWIDTH 71 0
BBX 68 85 2 -1
BITMAP
00001C000000000000
0003FC000000000000
00FFFC000000000000
1FFFFC000000000000
FFFFFC000000000000
FFFFFC000000000000
FFFFFC000000000000
FFFFFC000000000000
03FFFC000000000000
01FFFC000000000000
01FFFC000000000000
00FFFC000000000000
00FFFC000000000000
00FFFC000000000000
00FFFC000000000000
00FFFC000000000000
00FFFC000000000000
00FFFC000000000000
00FFFC000000000000
00FFFC000000000000
00FFFC000000000000
00FFFC000000000000
00FFFC000000000000
00FFFC000000000000
00FFFC000000000000
00FFFC000000000000
00FFFC000000000000
00FFFC000000000000
00FFFC000000000000
00FFFC000000000000
00FFFC003FF0000000
00FFFC03FFFE000000
00FFFC0FFFFFC00000
00FFFC1FFFFFE00000
00FFFC3FFFFFF00000
00FFFC7FFFFFFC0000
00FFFCFFFFFFFC0000
00FFFDFE00FFFE0000
00FFFFF8007FFF0000
00FFFFE0003FFF0000
00FFFFC0001FFF8000
00FFFFC0000FFF8000
00FFFF80000FFFC000
00FFFF80000FFFC000
00FFFF000007FFC000
00FFFF000007FFE000
00FFFE000007FFE000
00FFFE000007FFE000
00FFFE000007FFE000
00FFFE000007FFE000
00FFFE000007FFF000
00FFFE000003FFF000
00FFFC000003FFF000
00FFFC000003FFF000
00FFFC000003FFF000
00FFFC000003FFF000
00FFFC000003FFF000
00FFFC000003FFF000
00FFFC000003FFF000
00FFFC000003FFF000
00FFFC000003FFF000
00FFFC000003FFF000
00FFFC000003FFF000
00FFFC000003FFF000
00FFFC000003FFF000
00FFFC000003FFF000
00FFFC000003FFF000
00FFFC000003FFF000
00FFFC000003FFF000
00FFFC000003FFF000
00FFFC000003FFF000
00FFFC000003FFF000
00FFFC000003FFF000
00FFFE000003FFF000
00FFFE000007FFF000
00FFFE000007FFF000
00FFFE000007FFF000
00FFFE000007FFF000
01FFFF00000FFFF800
03FFFF80001FFFFC00
0FFFFFE0007FFFFF00
FFFFFFFE07FFFFFFF0
FFFFFFFE07FFFFFFF0
FFFFFFFE07FFFFFFF0
FFFFFFFE07FFFFFFF0
ENDCHAR
STARTCHAR i
ENCODING 105
SWIDTH 361 0
DWIDTH 36 0
BBX 32 85 2 -1
BITMAP
0003E000
000FF800
001FFC00
003FFE00
003FFF00
007FFF00
007FFF00
007FFF80
007FFF00
007FFF00
007FFF00
003FFF00
001FFE00
001FFC00
0007F800
00000000
00000000
00000000
00000000
00000000
00000000
00000000
00000000
00000000
00000000
00000000
00000000
00000000
00000000
00000000
00000700
0001FF00
007FFF00
1FFFFF00
FFFFFF00
FFFFFF00
FFFFFF00
3FFFFF00
01FFFF00
00FFFF00
007FFF00
007FFF00
007FFF00
007FFF00
007FFF00
007FFF00
003FFF00
003FFF00
003FFF00
003FFF00
003FFF00
003FFF00
003FFF00
003FFF00
003FFF00
003FFF00
003FFF00
003FFF00
003FFF00
003FFF00
003FFF00
003FFF00
003FFF00
003FFF00
003FFF00
003FFF00
003FFF00
003FFF00
003FFF00
003FFF00
003FFF00
003FFF00
003FFF00
003FFF00
007FFF00
007FFF00
007FFF00
007FFF80
00FFFF80
01FFFFC0
07FFFFF0
7FFFFFFF
7FFFFFFF
7FFFFFFF
7FFFFFFF
ENDCHAR
STARTCHAR j
ENCODING 106
SWIDTH 331 0
DWIDTH 33 0
BBX 40 111 -15 -27
BITMAP
00000003E0
0000000FF8
0000001FFC
0000003FFE
0000003FFF
0000007FFF
0000007FFF
0000007FFF
0000007FFF
0000007FFF
0000007FFF
0000003FFE
0000003FFE
0000001FFC
00000007F8
0000000080
0000000000
0000000000
0000000000
0000000000
0000000000
0000000000
0000000000
0000000000
0000000000
0000000000
0000000000
0000000000
0000000000
0000000000
0000000007
00000001FF
0000007FFF
00001FFFFF
0000FFFFFF
0000FFFFFF
0000FFFFFF
00003FFFFF
000001FFFF
000000FFFF
0000007FFF
0000007FFF
0000007FFF
0000007FFF
0000007FFF
0000007FFF
0000007FFF
0000007FFF
0000003FFF
0000003FFF
0000003FFF
0000003FFF
0000003FFF
0000003FFF
0000003FFF
0000003FFF
0000003FFF
0000003FFF
0000003FFF
0000003FFF
0000003FFF
0000003FFF
0000003FFF
0000003FFF
0000003FFF
0000003FFF
0000003FFF
0000003FFF
0000003FFF
0000003FFF
0000003FFF
0000003FFF
0000003FFF
0000003FFF
0000003FFF
0000003FFF
0000003FFF
0000003FFF
0000003FFF
0000003FFF
0000003FFF
0000003FFF
0000003FFF
0000003FFF
0000003FFF
0000003FFF
0000003FFF
0000003FFF
0000003FFE
0000003FFE
0000003FFE
0000003FFE
0000003FFE
0000003FFE
0000003FFE
0000003FFC
3F00003FFC
7F80007FFC
FFC0007FF8
FFE0007FF8
FFF0007FF0
FFF000FFF0
FFF800FFE0
FFFC01FFC0
FFFE03FF80
7FFF8FFF00
3FFFFFFE00
1FFFFFFC00
07FFFFF000
01FFFFC000
003FFC0000
ENDCHAR
STARTCHAR k
ENCODING 107
SWIDTH 664 0
DWIDTH 66 0
BBX 65 85 2 -1
BITMAP
00001C000000000000
0003FC000000000000
00FFFC000000000000
1FFFFC000000000000
FFFFFC000000000000
FFFFFC000000000000
FFFFFC000000000000
FFFFFC000000000000
03FFFC000000000000
01FFFC000000000000
01FFFC000000000000
00FFFC000000000000
00FFFC000000000000
00FFFC000000000000
00FFFC000000000000
00FFFC000000000000
00FFFC000000000000
00FFFC000000000000
00FFFC000000000000
00FFFC000000000000
00FFFC000000000000
00FFFC000000000000
00FFFC000000000000
00FFFC000000000000
00FFFC000000000000
00FFFC000000000000
00FFFC000000000000
00FFFC000000000000
00FFFC000000000000
00FFFC000000000000
00FFFC007FFFFFF000
00FFFC007FFFFFF000
00FFFC007FFFFFF000
00FFFC007FFFFFF000
00FFFC0000FFFF0000
00FFFC00007FF80000
00FFFC00007FE00000
00FFFC00007FC00000
00FFFC0000FF800000
00FFFC0001FF000000
00FFFC0003FE000000
00FFFC0007FC000000
00FFFC000FF8000000
00FFFC001FE0000000
00FFFC003FC0000000
00FFFC007F80000000
00FFFC00FF00000000
00FFFC01FE00000000
00FFFC03FC00000000
00FFFC07F800000000
00FFFC0FFC00000000
00FFFC1FFE00000000
00FFFC3FFE00000000
00FFFC7FFF00000000
00FFFCFFFF80000000
00FFFDFFFF80000000
00FFFFFFFFC0000000
00FFFFFFFFE0000000
00FFFFFFFFE0000000
00FFFFEFFFF0000000
00FFFFCFFFF8000000
00FFFF87FFF8000000
00FFFF07FFFC000000
00FFFE03FFFE000000
00FFFC01FFFE000000
00FFFC01FFFF000000
00FFFC00FFFF800000
00FFFC007FFF800000
00FFFC007FFFC00000
00FFFC003FFFE00000
00FFFC001FFFE00000
00FFFC001FFFF00000
00FFFC000FFFF80000
00FFFC000FFFF80000
00FFFC0007FFFC0000
00FFFE0003FFFE0000
00FFFE0003FFFF0000
01FFFE0001FFFF0000
01FFFF0001FFFF8000
03FFFF0000FFFFE000
0FFFFFC001FFFFF800
FFFFFFF83FFFFFFF80
FFFFFFF83FFFFFFF80
FFFFFFF83FFFFFFF80
FFFFFFF83FFFFFFF80
ENDCHAR
STARTCHAR l
ENCODING 108
SWIDTH 355 0
DWIDTH 36 0
BBX 32 85 1 -1
BITMAP
00000700
0001FF00
007FFF00
1FFFFF00
FFFFFF00
FFFFFF00
FFFFFF00
3FFFFF00
01FFFF00
00FFFF00
007FFF00
007FFF00
007FFF00
007FFF00
007FFF00
007FFF00
003FFF00
003FFF00
003FFF00
003FFF00
003FFF00
003FFF00
003FFF00
003FFF00
003FFF00
003FFF00
003FFF00
003FFF00
003FFF00
003FFF00
003FFF00
003FFF00
003FFF00
003FFF00
003FFF00
003FFF00
003FFF00
003FFF00
003FFF00
003FFF00
003FFF00
003FFF00
003FFF00
003FFF00
003FFF00
003FFF00
003FFF00
003FFF00
003FFF00
003FFF00
003FFF00
003FFF00
003FFF00
003FFF00
003FFF00
003FFF00
003FFF00
003FFF00
003FFF00
003FFF00
003FFF00
003FFF00
003FFF00
003FFF00
003FFF00
003FFF00
003FFF00
003FFF00
003FFF00
003FFF00
003FFF00
003FFF00
003FFF00
003FFF00
007FFF00
007FFF00
007FFF00
007FFF80
00FFFF80
01FFFFC0
07FFFFF0
7FFFFFFF
7FFFFFFF
7FFFFFFF
7FFFFFFF
ENDCHAR
STARTCHAR m
ENCODING 109
SWIDTH 1106 0
DWIDTH 111 0
BBX 106 55 3 -1
BITMAP
0000E0003FF0000001FFC0000000
000FE003FFFF00001FFFFE000000
01FFE00FFFFFC0007FFFFF800000
3FFFE03FFFFFF001FFFFFFE00000
FFFFF07FFFFFF803FFFFFFF00000
FFFFF0FFFFFFFC0FFFFFFFF80000
FFFFF1FFFFFFFE1FFFFFFFFC0000
3FFFF3FC00FFFF3FF007FFFE0000
03FFF7F8003FFF7FC001FFFE0000
01FFFFF0001FFFFF8000FFFF0000
00FFFFE0001FFFFF00007FFF0000
00FFFFC0000FFFFE00007FFF0000
00FFFFC0000FFFFE00003FFF8000
00FFFF800007FFFC00003FFF8000
00FFFF800007FFFC00003FFF8000
007FFF000007FFF800001FFF8000
007FFF000007FFF800001FFF8000
007FFF000003FFF800001FFF8000
007FFE000003FFF800001FFF8000
007FFE000003FFF000001FFF8000
007FFE000003FFF000001FFF8000
007FFE000003FFF000001FFF8000
007FFE000003FFF000001FFF8000
007FFE000003FFF000001FFF8000
007FFE000003FFF000001FFF8000
007FFE000003FFF000001FFF8000
007FFE000003FFF000001FFF8000
007FFE000003FFF000001FFF8000
007FFE000003FFF000001FFF8000
007FFE000003FFF000001FFF8000
007FFE000003FFF000001FFF8000
007FFE000003FFF000001FFF8000
007FFE000003FFF000001FFF8000
007FFE000003FFF000001FFF8000
007FFE000003FFF000001FFF8000
007FFE000003FFF000001FFF8000
007FFE000003FFF000001FFF8000
007FFE000003FFF000001FFF8000
007FFE000003FFF000001FFF8000
007FFE000003FFF000001FFF8000
007FFE000003FFF000001FFF8000
007FFE000003FFF000001FFF8000
007FFE000003FFF000001FFF8000
007FFE000003FFF000001FFFC000
007FFE000003FFF000001FFFC000
00FFFE000003FFF000001FFFC000
00FFFE000003FFF800001FFFC000
00FFFE000007FFF800001FFFC000
01FFFF000007FFF800003FFFE000
01FFFF80000FFFFC00007FFFF000
0FFFFFE0007FFFFF8001FFFFFC00
FFFFFFFE07FFFFFFF83FFFFFFFC0
FFFFFFFE07FFFFFFF83FFFFFFFC0
FFFFFFFE07FFFFFFF83FFFFFFFC0
FFFFFFFE07FFFFFFF83FFFFFFFC0
ENDCHAR
STARTCHAR n
ENCODING 110
SWIDTH 727 0
DWIDTH 73 0
BBX 69 55 2 -1
BITMAP
000070003FF8000000
0007F001FFFF800000
00FFF007FFFFE00000
1FFFF01FFFFFF00000
FFFFF03FFFFFFC0000
FFFFF87FFFFFFE0000
FFFFF8FFFFFFFF0000
1FFFF9FE007FFF0000
01FFFBFC001FFF8000
00FFFFF8000FFFC000
007FFFF0000FFFC000
007FFFE00007FFE000
007FFFC00007FFE000
007FFFC00003FFF000
007FFF800003FFF000
007FFF800003FFF000
003FFF800003FFF000
003FFF800001FFF000
003FFF000001FFF800
003FFF000001FFF800
003FFF000001FFF800
003FFF000001FFF800
003FFF000001FFF800
003FFF000001FFF800
003FFF000001FFF800
003FFF000001FFF800
003FFF000001FFF800
003FFF000001FFF800
003FFF000001FFF800
003FFF000001FFF800
003FFF000001FFF800
003FFF000001FFF800
003FFF000001FFF800
003FFF000001FFF800
003FFF000001FFF800
003FFF000001FFF800
003FFF000001FFF800
003FFF000001FFF800
003FFF000001FFF800
003FFF000001FFF800
003FFF000001FFF800
003FFF000001FFF800
003FFF000001FFF800
003FFF000001FFF800
003FFF000001FFF800
007FFF000001FFF800
007FFF000003FFF800
007FFF000003FFFC00
00FFFF800003FFFC00
01FFFFC00007FFFE00
07FFFFF0003FFFFF80
7FFFFFFF03FFFFFFF8
7FFFFFFF03FFFFFFF8
7FFFFFFF03FFFFFFF8
7FFFFFFF03FFFFFFF8
ENDCHAR
STARTCHAR o
ENCODING 111
SWIDTH 660 0
DWIDTH 66 0
BBX 58 55 4 -1
BITMAP
000001FFE0000000
00001FFFFC000000
0000FFFFFF800000
0003FFFFFFE00000
000FFFFFFFF80000
001FFFFFFFFE0000
003FFF807FFF0000
00FFFE001FFF8000
01FFFC000FFFC000
03FFF80007FFE000
03FFF00003FFF000
07FFE00001FFF800
0FFFE00001FFFC00
1FFFC00000FFFC00
1FFFC00000FFFE00
3FFF8000007FFF00
3FFF8000007FFF00
7FFF8000007FFF00
7FFF0000003FFF80
7FFF0000003FFF80
FFFF0000003FFF80
FFFF0000003FFFC0
FFFF0000003FFFC0
FFFF0000003FFFC0
FFFE0000003FFFC0
FFFE0000001FFFC0
FFFE0000001FFFC0
FFFE0000001FFFC0
FFFE0000001FFFC0
FFFE0000001FFFC0
FFFE0000003FFFC0
FFFF0000003FFFC0
FFFF0000003FFFC0
FFFF0000003FFFC0
7FFF0000003FFF80
7FFF0000003FFF80
7FFF0000007FFF80
3FFF8000007FFF00
3FFF8000007FFF00
1FFF800000FFFE00
1FFFC00000FFFE00
0FFFC00000FFFC00
0FFFE00001FFFC00
07FFE00003FFF800
03FFF00003FFF000
01FFF80007FFE000
00FFFC000FFFC000
007FFE003FFF8000
003FFFC0FFFF0000
001FFFFFFFFE0000
0007FFFFFFF80000
0003FFFFFFE00000
0000FFFFFF800000
00001FFFFE000000
000001FFE0000000
ENDCHAR
STARTCHAR p
ENCODING 112
SWIDTH 697 0
DWIDTH 70 0
BBX 64 79 2 -25
BITMAP
00003000FFE00000
001FF007FFFE0000
0FFFF03FFFFF8000
FFFFF07FFFFFE000
FFFFF1FFFFFFF800
FFFFF3FFFFFFFC00
FFFFF7FF007FFE00
07FFFFFC001FFF00
03FFFFF0000FFF80
01FFFFE00007FFC0
00FFFFC00007FFE0
00FFFFC00003FFE0
00FFFF800003FFF0
00FFFF800001FFF8
00FFFF000001FFF8
00FFFF000001FFFC
00FFFF000000FFFC
00FFFE000000FFFC
00FFFE000000FFFE
00FFFE000000FFFE
00FFFE000000FFFE
007FFE000000FFFE
007FFE0000007FFF
007FFE0000007FFF
007FFE0000007FFF
007FFE0000007FFF
007FFE0000007FFF
007FFE0000007FFF
007FFE0000007FFF
007FFE0000007FFF
007FFE0000007FFF
007FFE0000007FFF
007FFE0000007FFF
007FFE0000007FFE
007FFE000000FFFE
007FFE000000FFFE
007FFE000000FFFE
007FFF000000FFFC
007FFF000000FFFC
007FFF000001FFFC
007FFF800001FFF8
007FFF800001FFF8
007FFFC00003FFF0
007FFFE00003FFE0
007FFFE00007FFE0
007FFFF0000FFFC0
007FFFFC001FFF80
007FFFFF007FFF00
007FFDFFFFFFFE00
007FFCFFFFFFFC00
007FFC7FFFFFF800
007FFC3FFFFFE000
007FFC1FFFFF8000
007FFC07FFFE0000
007FFC007FE00000
007FFC0000000000
007FFC0000000000
007FFC0000000000
007FFC0000000000
007FFC0000000000
007FFC0000000000
007FFC0000000000
007FFC0000000000
007FFC0000000000
007FFC0000000000
007FFC0000000000
00FFFE0000000000
00FFFE0000000000
00FFFE0000000000
00FFFE0000000000
00FFFE0000000000
01FFFF0000000000
01FFFF8000000000
03FFFFC000000000
1FFFFFFC00000000
FFFFFFFFC0000000
FFFFFFFFC0000000
FFFFFFFFC0000000
FFFFFFFFC0000000
ENDCHAR
STARTCHAR q
ENCODING 113
SWIDTH 674 0
DWIDTH 67 0
BBX 65 79 4 -25
BITMAP
00000FFE00003E0000
00007FFFE0007E0000
0003FFFFF801FE0000
000FFFFFFE03FE0000
001FFFFFFF87FE0000
003FFFFFFFDFFE0000
00FFFF01FFFFFE0000
01FFFC007FFFFE0000
01FFF0001FFFFE0000
03FFE0000FFFFE0000
07FFE00007FFFE0000
0FFFC00003FFFE0000
0FFFC00003FFFE0000
1FFF800001FFFE0000
1FFF800001FFFE0000
3FFF000000FFFE0000
3FFF000000FFFE0000
7FFF000000FFFE0000
7FFF000000FFFE0000
7FFF0000007FFE0000
7FFE0000007FFE0000
FFFE0000007FFE0000
FFFE0000007FFE0000
FFFE0000007FFE0000
FFFE0000007FFE0000
FFFE0000007FFE0000
FFFE0000007FFE0000
FFFE0000007FFE0000
FFFE0000007FFE0000
FFFE0000007FFE0000
FFFE0000007FFE0000
FFFE0000007FFE0000
FFFE0000007FFE0000
FFFE0000007FFE0000
7FFE000000FFFE0000
7FFF000000FFFE0000
7FFF000000FFFE0000
7FFF000000FFFE0000
3FFF000000FFFE0000
3FFF800001FFFE0000
1FFF800001FFFE0000
1FFF800003FFFE0000
0FFFC00003FFFE0000
0FFFC00007FFFE0000
07FFE0000FFFFE0000
03FFF0001FFFFE0000
03FFF8003FFFFE0000
01FFFE00FFFFFE0000
00FFFFFFFF7FFE0000
007FFFFFFE7FFE0000
001FFFFFFC7FFE0000
000FFFFFF87FFE0000
0003FFFFE07FFE0000
00007FFF807FFE0000
00000FFC007FFE0000
00000000007FFE0000
00000000007FFE0000
00000000007FFE0000
00000000007FFE0000
00000000007FFE0000
00000000007FFE0000
00000000007FFE0000
00000000007FFE0000
00000000007FFE0000
00000000007FFE0000
00000000007FFE0000
00000000007FFE0000
00000000007FFE0000
00000000007FFE0000
0000000000FFFE0000
0000000000FFFE0000
0000000001FFFF0000
0000000001FFFF0000
0000000007FFFF8000
000000003FFFFFE000
00000007FFFFFFFF80
00000007FFFFFFFF80
00000007FFFFFFFF80
00000007FFFFFFFF80
ENDCHAR
STARTCHAR r
ENCODING 114
SWIDTH 498 0
DWIDTH 50 0
BBX 47 55 3 -1
BITMAP
000070003F80
001FF001FFF0
07FFF003FFF8
FFFFF00FFFFC
FFFFF01FFFFC
FFFFF03FFFFC
FFFFF87FFFFE
0FFFF8FFFFFE
03FFF9FFFFFC
01FFF9FFFFFC
01FFFBFCFFFC
00FFFBF83FF8
00FFFFF01FF0
00FFFFE00FE0
00FFFFC00000
00FFFFC00000
007FFFC00000
007FFF800000
007FFF800000
007FFF800000
007FFF000000
007FFF000000
007FFF000000
007FFF000000
007FFF000000
007FFE000000
007FFE000000
007FFE000000
007FFE000000
007FFE000000
007FFE000000
007FFE000000
007FFE000000
007FFE000000
007FFE000000
007FFE000000
007FFE000000
007FFE000000
007FFE000000
007FFE000000
007FFE000000
007FFE000000
007FFE000000
007FFE000000
007FFE000000
007FFE000000
00FFFE000000
00FFFF000000
00FFFF000000
01FFFF800000
0FFFFFE00000
FFFFFFFF8000
FFFFFFFF8000
FFFFFFFF8000
FFFFFFFF8000
ENDCHAR
STARTCHAR s
ENCODING 115
SWIDTH 466 0
DWIDTH 47 0
BBX 38 55 5 -1
BITMAP
0007FF8380
003FFFE780
00FFFFFF80
03FFFFFF80
07FFFFFF80
0FFFCFFF80
0FFC01FF80
1FF800FF80
3FF8007F80
3FF0003F80
3FF0001F80
7FF0001F80
7FF0000F80
7FF8000F80
7FF8000780
7FFC000000
7FFE000000
7FFF000000
7FFF800000
7FFFE00000
3FFFF80000
3FFFFC0000
1FFFFF0000
1FFFFFC000
0FFFFFF000
07FFFFF800
03FFFFFC00
01FFFFFF00
00FFFFFF80
003FFFFFC0
001FFFFFE0
0007FFFFE0
0001FFFFF0
0000FFFFF8
00003FFFF8
00000FFFF8
000007FFFC
F80003FFFC
F80001FFFC
F80000FFFC
FC00007FFC
FC00007FFC
FC00007FFC
FE00003FFC
FF00003FF8
FF00007FF8
FFC0007FF0
FFE000FFF0
FFF801FFE0
FFFF1FFFC0
FFFFFFFF80
FFFFFFFF00
F9FFFFFE00
F07FFFF000
F01FFF8000
ENDCHAR
STARTCHAR t
ENCODING 116
SWIDTH 382 0
DWIDTH 38 0
BBX 35 67 2 -1
BITMAP
0000FC0000
0000FC0000
0001FC0000
0001FC0000
0003FC0000
0007FC0000
000FFC0000
001FFC0000
003FFC0000
00FFFC0000
01FFFC0000
07FFFC0000
3FFFFFFF80
FFFFFFFF80
FFFFFFFF80
FFFFFFFF80
FFFFFFFF80
FFFFFFFF80
00FFFC0000
00FFFC0000
00FFFC0000
00FFFC0000
00FFFC0000
00FFFC0000
00FFFC0000
00FFFC0000
00FFFC0000
00FFFC0000
00FFFC0000
00FFFC0000
00FFFC0000
00FFFC0000
00FFFC0000
00FFFC0000
00FFFC0000
00FFFC0000
00FFFC0000
00FFFC0000
00FFFC0000
00FFFC0000
00FFFC0000
00FFFC0000
00FFFC0000
00FFFC0000
00FFFC0000
00FFFC0000
00FFFC0000
00FFFC0000
00FFFC0000
00FFFC0000
00FFFC0000
00FFFC0000
00FFFC0000
00FFFC0000
00FFFC0000
00FFFC0000
00FFFC0000
00FFFE0040
00FFFE00E0
007FFF01E0
007FFFEFE0
003FFFFFE0
003FFFFFC0
001FFFFF80
0007FFFF00
0003FFFC00
00007FE000
ENDCHAR
STARTCHAR u
ENCODING 117
SWIDTH 709 0
DWIDTH 71 0
BBX 69 55 1 -1
BITMAP
FFFFFE0007FFFFE000
FFFFFE0007FFFFE000
FFFFFE0007FFFFE000
FFFFFE0007FFFFE000
0FFFFE0000FFFFE000
01FFFE00001FFFE000
00FFFE00000FFFE000
00FFFE000007FFE000
00FFFE000007FFE000
007FFE000007FFE000
007FFE000007FFE000
007FFE000007FFE000
007FFE000007FFE000
007FFE000007FFE000
007FFE000007FFE000
007FFE000007FFE000
007FFE000007FFE000
007FFE000007FFE000
007FFE000007FFE000
007FFE000007FFE000
007FFE000007FFE000
007FFE000007FFE000
007FFE000007FFE000
007FFE000007FFE000
007FFE000007FFE000
007FFE000007FFE000
007FFE000007FFE000
007FFE000007FFE000
007FFE000007FFE000
007FFE000007FFE000
007FFE000007FFE000
007FFE000007FFE000
007FFE000007FFE000
007FFE000007FFE000
007FFE000007FFE000
007FFE000007FFE000
007FFE000007FFE000
007FFE00000FFFE000
007FFE00000FFFE000
003FFF00000FFFF000
003FFF00001FFFF000
003FFF00001FFFF000
001FFF80001FFFF000
001FFF80003FFFF000
001FFFC0007FFFF000
000FFFC000FFFFF000
000FFFE001FEFFF000
0007FFF803FCFFF800
0003FFFFFFF8FFF800
0001FFFFFFF8FFFE00
0000FFFFFFE0FFFFF8
00007FFFFFC0FFFFF8
00001FFFFF00FFFFF8
000007FFFC00FFFFF8
000000FFE0007FF000
ENDCHAR
STARTCHAR v
ENCODING 118
SWIDTH 624 0
DWIDTH 62 0
BBX 61 54 1 0
BITMAP
FFFFFFFC01FFFFF8
FFFFFFFC01FFFFF8
FFFFFFFC01FFFFF8
FFFFFFFC01FFFFF8
1FFFFF00001FFFE0
07FFFE000007FF80
03FFFC000003FF00
01FFFC000003FE00
01FFFC000003FC00
00FFFE000003FC00
00FFFE000003F800
007FFE000007F800
007FFF000007F000
007FFF000007F000
003FFF00000FE000
003FFF80000FE000
003FFF80001FE000
001FFF80001FC000
001FFFC0001FC000
000FFFC0003F8000
000FFFC0003F8000
000FFFE0007F0000
0007FFE0007F0000
0007FFF0007E0000
0003FFF000FE0000
0003FFF000FE0000
0003FFF801FC0000
0001FFF801FC0000
0001FFF801F80000
0001FFFC03F80000
0000FFFC03F00000
0000FFFC07F00000
00007FFE07E00000
00007FFE07E00000
00007FFF0FE00000
00003FFF0FC00000
00003FFF1FC00000
00001FFF9F800000
00001FFFBF800000
00001FFFBF000000
00000FFFFF000000
00000FFFFF000000
00000FFFFE000000
000007FFFE000000
000007FFFC000000
000003FFFC000000
000003FFF8000000
000003FFF8000000
000001FFF0000000
000001FFF0000000
000000FFF0000000
000000FFE0000000
000000FFE0000000
0000007FC0000000
ENDCHAR
STARTCHAR w
ENCODING 119
SWIDTH 891 0
DWIDTH 89 0
BBX 88 54 1 0
BITMAP
FFFFFFF0000FF0003FFFFF
FFFFFFF0001FF0003FFFFF
FFFFFFF0001FF8003FFFFF
FFFFFFF0003FF8003FFFFF
3FFFFF80003FF80003FFF8
07FFFE00003FFC0000FFE0
03FFFC00007FFC0000FFC0
01FFFC00007FFC00007FC0
01FFFC00007FFC00007F80
00FFFC0000FFFE00007F80
00FFFC0000FFFE00007F00
007FFC0001FFFE0000FF00
007FFE0001FFFF0000FE00
007FFE0001FFFF0000FE00
003FFE0003FFFF0000FC00
003FFF0003FFFF0001FC00
003FFF0003FFFF8001FC00
001FFF0007FFFF8001F800
001FFF0007FFFF8003F800
001FFF800FEFFFC003F000
000FFF800FE7FFC007F000
000FFF800FE7FFC007F000
000FFF801FC7FFC007E000
0007FFC01FC3FFE00FE000
0007FFC01FC3FFE00FC000
0007FFC03F83FFE01FC000
0003FFE03F81FFF01FC000
0003FFE07F01FFF01F8000
0003FFE07F01FFF03F8000
0001FFE07F01FFF03F0000
0001FFF0FE00FFF83F0000
0001FFF0FE00FFF87F0000
0000FFF0FC00FFF87E0000
0000FFF1FC007FF8FE0000
0000FFF9FC007FFCFC0000
00007FFBF8007FFCFC0000
00007FFBF8003FFDFC0000
00007FFFF8003FFFF80000
00003FFFF0003FFFF80000
00003FFFF0003FFFF00000
00003FFFE0001FFFF00000
00001FFFE0001FFFF00000
00001FFFE0001FFFE00000
00001FFFC0000FFFE00000
00000FFFC0000FFFC00000
00000FFFC0000FFFC00000
00000FFF800007FFC00000
000007FF800007FF800000
000007FF000007FF800000
000007FF000007FF800000
000003FF000003FF000000
000003FE000003FF000000
000003FE000003FE000000
000001FE000001FE000000
ENDCHAR
STARTCHAR x
ENCODING 120
SWIDTH 648 0
DWIDTH 65 0
BBX 64 55 1 -1
BITMAP
7FFFFFFE03FFFFF8
7FFFFFFE03FFFFF8
7FFFFFFE03FFFFF8
7FFFFFFE03FFFFF8
0FFFFFF0007FFF80
03FFFFE0001FFE00
01FFFFC0001FF800
00FFFFC0001FF000
007FFFE0001FE000
007FFFE0003FC000
003FFFF0007F8000
001FFFF0007F0000
000FFFF800FF0000
000FFFFC01FE0000
0007FFFE03FC0000
0003FFFE03F80000
0001FFFF07F00000
0001FFFF8FE00000
0000FFFF9FE00000
00007FFFDFC00000
00003FFFFF800000
00003FFFFF000000
00001FFFFE000000
00000FFFFE000000
000007FFFC000000
000007FFFC000000
000003FFFE000000
000001FFFF000000
000000FFFF800000
000000FFFF800000
000000FFFFC00000
000001FFFFE00000
000001FFFFF00000
000003FFFFF00000
000007FFFFF80000
00000FE7FFFC0000
00001FE3FFFE0000
00003FC1FFFE0000
00003F81FFFF0000
00007F00FFFF8000
0000FE007FFFC000
0001FE007FFFC000
0003FC003FFFE000
0003F8001FFFF000
0007F0001FFFF800
000FF0000FFFF800
001FE0000FFFFC00
003FE00007FFFE00
007FE00007FFFF00
01FFE00007FFFF80
0FFFF8000FFFFFF0
FFFFFF80FFFFFFFF
FFFFFF80FFFFFFFF
FFFFFF80FFFFFFFF
FFFFFF80FFFFFFFF
ENDCHAR
STARTCHAR y
ENCODING 121
SWIDTH 646 0
DWIDTH 65 0
BBX 64 81 1 -27
BITMAP
FFFFFFFC00FFFFFF
FFFFFFFC00FFFFFF
FFFFFFFC00FFFFFF
FFFFFFFC00FFFFFF
1FFFFF800007FFF8
07FFFF000001FFF0
03FFFE000001FFC0
01FFFE000000FFC0
01FFFE000000FF80
00FFFE000000FF00
00FFFF000001FF00
00FFFF000001FE00
007FFF000001FE00
007FFF800001FC00
003FFF800003FC00
003FFF800003F800
003FFFC00007F800
001FFFC00007F000
001FFFC00007F000
000FFFE0000FE000
000FFFE0000FE000
000FFFE0001FC000
0007FFF0001FC000
0007FFF0003FC000
0003FFF0003F8000
0003FFF8003F8000
0003FFF8007F0000
0001FFF8007F0000
0001FFFC00FE0000
0000FFFC00FE0000
0000FFFC01FC0000
0000FFFE01FC0000
00007FFE01F80000
00007FFE03F80000
00003FFF03F00000
00003FFF07F00000
00003FFF07F00000
00001FFF8FE00000
00001FFF8FE00000
00001FFF8FC00000
00000FFFDFC00000
00000FFFDF800000
000007FFFF800000
000007FFFF000000
000007FFFF000000
000003FFFE000000
000003FFFE000000
000001FFFC000000
000001FFFC000000
000001FFFC000000
000000FFF8000000
000000FFF8000000
0000007FF0000000
0000007FF0000000
0000007FE0000000
0000003FE0000000
0000003FC0000000
0000001FC0000000
0000001F80000000
0000003F80000000
0000003F00000000
0000007F00000000
0000007E00000000
000000FE00000000
000000FE00000000
000001FC00000000
000003FC00000000
00000FF800000000
00003FF800000000
0007FFF000000000
00FFFFF000000000
01FFFFE000000000
03FFFFE000000000
07FFFFC000000000
07FFFF8000000000
07FFFF0000000000
07FFFE0000000000
03FFFC0000000000
03FFF80000000000
01FFE00000000000
007F000000000000
ENDCHAR
STARTCHAR z
ENCODING 122
SWIDTH 568 0
DWIDTH 57 0
BBX 50 55 3 -1
BITMAP
0FFFFFFFFFFF80
0FFFFFFFFFFF80
0FFFFFFFFFFF80
1FFFFFFFFFFF00
1FFFFFFFFFFE00
1FFFC001FFFE00
1FF00003FFFC00
1FC00007FFF800
1F800007FFF800
1F00000FFFF000
1F00001FFFE000
1E00001FFFE000
1E00003FFFC000
1E00007FFFC000
1E00007FFF8000
1C0000FFFF0000
000000FFFF0000
000001FFFE0000
000003FFFC0000
000003FFFC0000
000007FFF80000
00000FFFF00000
00000FFFF00000
00001FFFE00000
00003FFFC00000
00003FFFC00000
00007FFF800000
0000FFFF000000
0000FFFF000000
0001FFFE000000
0003FFFC000000
0003FFFC000000
0007FFF8000000
000FFFF0000000
000FFFF0000000
001FFFE0000000
003FFFE0000000
003FFFC00003C0
007FFF800003C0
00FFFF800003C0
00FFFF000007C0
01FFFE000007C0
03FFFE000007C0
03FFFC00000FC0
07FFF800000FC0
0FFFF800001FC0
0FFFF000003FC0
1FFFE000007FC0
3FFFE00003FF80
3FFFC007FFFF80
7FFFFFFFFFFF80
FFFFFFFFFFFF80
FFFFFFFFFFFF80
FFFFFFFFFFFF80
FFFFFFFFFFFF80
ENDCHAR
ENDFONT
